M48
; DRILL file {KiCad (5.1.4)-1} date 18/10/2019 12:54:56
; FORMAT={-:-/ absolute / inch / decimal}
; #@! TF.CreationDate,2019-10-18T12:54:56+02:00
; #@! TF.GenerationSoftware,Kicad,Pcbnew,(5.1.4)-1
FMAT,2
INCH
T1C0.0315
T2C0.0315
T3C0.0394
%
G90
G05
T1
X7.4106Y-5.3346
X7.5106Y-5.3346
X6.9783Y-5.1969
X7.2783Y-5.1969
X7.0827Y-4.3463
X7.0827Y-4.4463
X7.0827Y-4.5463
X7.0827Y-4.6463
X7.0827Y-4.7463
X7.0827Y-4.8463
X7.0827Y-4.9463
X7.3827Y-4.3463
X7.3827Y-4.4463
X7.3827Y-4.5463
X7.3827Y-4.6463
X7.3827Y-4.7463
X7.3827Y-4.8463
X7.3827Y-4.9463
X6.8701Y-4.7787
X6.8701Y-5.0787
X6.9783Y-5.0787
X7.4902Y-4.348
X7.4902Y-4.648
T2
X7.0768Y-5.0787
T3
X6.4961Y-4.3012
X6.4961Y-4.4012
X6.4961Y-4.5012
X6.4961Y-4.6012
X6.4961Y-4.7012
X6.4961Y-4.8012
X6.4961Y-4.9012
X6.4961Y-5.0012
X6.4961Y-5.1012
X6.4961Y-5.2012
X6.5961Y-4.3012
X6.5961Y-4.4012
X6.5961Y-4.5012
X6.5961Y-4.6012
X6.5961Y-4.7012
X6.5961Y-4.8012
X6.5961Y-4.9012
X6.5961Y-5.0012
X6.5961Y-5.1012
X6.5961Y-5.2012
X7.5961Y-4.3012
X7.5961Y-4.4012
X7.5961Y-4.5012
X7.5961Y-4.6012
X7.5961Y-4.7012
X7.5961Y-4.8012
X7.5961Y-4.9012
X7.5961Y-5.0012
X7.5961Y-5.1012
X7.5961Y-5.2012
X7.6961Y-4.3012
X7.6961Y-4.4012
X7.6961Y-4.5012
X7.6961Y-4.6012
X7.6961Y-4.7012
X7.6961Y-4.8012
X7.6961Y-4.9012
X7.6961Y-5.0012
X7.6961Y-5.1012
X7.6961Y-5.2012
X6.8358Y-5.3346
X6.9358Y-5.3346
X7.0358Y-5.3346
X7.1358Y-5.3346
X7.2358Y-5.3346
T0
M30
