G04 #@! TF.GenerationSoftware,KiCad,Pcbnew,(5.1.4)-1*
G04 #@! TF.CreationDate,2019-10-18T13:19:36+02:00*
G04 #@! TF.ProjectId,FV1-usbprog,4656312d-7573-4627-9072-6f672e6b6963,rev?*
G04 #@! TF.SameCoordinates,Original*
G04 #@! TF.FileFunction,Other,Fab,Top*
%FSLAX46Y46*%
G04 Gerber Fmt 4.6, Leading zero omitted, Abs format (unit mm)*
G04 Created by KiCad (PCBNEW (5.1.4)-1) date 2019-10-18 13:19:36*
%MOMM*%
%LPD*%
G04 APERTURE LIST*
%ADD10C,0.200000*%
%ADD11C,0.150000*%
%ADD12C,0.203200*%
G04 APERTURE END LIST*
D10*
X159285000Y-88295000D02*
X200560000Y-88295000D01*
X159285000Y-144175000D02*
X159285000Y-88295000D01*
X159920000Y-144175000D02*
X200560000Y-144175000D01*
X200560000Y-144175000D02*
X200560000Y-88295000D01*
X159920000Y-144175000D02*
X159285000Y-144175000D01*
D11*
X166104761Y-138461904D02*
X166104761Y-137661904D01*
X166409523Y-137661904D01*
X166485714Y-137700000D01*
X166523809Y-137738095D01*
X166561904Y-137814285D01*
X166561904Y-137928571D01*
X166523809Y-138004761D01*
X166485714Y-138042857D01*
X166409523Y-138080952D01*
X166104761Y-138080952D01*
X167361904Y-138461904D02*
X167095238Y-138080952D01*
X166904761Y-138461904D02*
X166904761Y-137661904D01*
X167209523Y-137661904D01*
X167285714Y-137700000D01*
X167323809Y-137738095D01*
X167361904Y-137814285D01*
X167361904Y-137928571D01*
X167323809Y-138004761D01*
X167285714Y-138042857D01*
X167209523Y-138080952D01*
X166904761Y-138080952D01*
X167857142Y-137661904D02*
X168009523Y-137661904D01*
X168085714Y-137700000D01*
X168161904Y-137776190D01*
X168200000Y-137928571D01*
X168200000Y-138195238D01*
X168161904Y-138347619D01*
X168085714Y-138423809D01*
X168009523Y-138461904D01*
X167857142Y-138461904D01*
X167780952Y-138423809D01*
X167704761Y-138347619D01*
X167666666Y-138195238D01*
X167666666Y-137928571D01*
X167704761Y-137776190D01*
X167780952Y-137700000D01*
X167857142Y-137661904D01*
X168961904Y-137700000D02*
X168885714Y-137661904D01*
X168771428Y-137661904D01*
X168657142Y-137700000D01*
X168580952Y-137776190D01*
X168542857Y-137852380D01*
X168504761Y-138004761D01*
X168504761Y-138119047D01*
X168542857Y-138271428D01*
X168580952Y-138347619D01*
X168657142Y-138423809D01*
X168771428Y-138461904D01*
X168847619Y-138461904D01*
X168961904Y-138423809D01*
X169000000Y-138385714D01*
X169000000Y-138119047D01*
X168847619Y-138119047D01*
X169152380Y-138538095D02*
X169761904Y-138538095D01*
X170219047Y-138042857D02*
X170333333Y-138080952D01*
X170371428Y-138119047D01*
X170409523Y-138195238D01*
X170409523Y-138309523D01*
X170371428Y-138385714D01*
X170333333Y-138423809D01*
X170257142Y-138461904D01*
X169952380Y-138461904D01*
X169952380Y-137661904D01*
X170219047Y-137661904D01*
X170295238Y-137700000D01*
X170333333Y-137738095D01*
X170371428Y-137814285D01*
X170371428Y-137890476D01*
X170333333Y-137966666D01*
X170295238Y-138004761D01*
X170219047Y-138042857D01*
X169952380Y-138042857D01*
X170752380Y-137661904D02*
X170752380Y-138309523D01*
X170790476Y-138385714D01*
X170828571Y-138423809D01*
X170904761Y-138461904D01*
X171057142Y-138461904D01*
X171133333Y-138423809D01*
X171171428Y-138385714D01*
X171209523Y-138309523D01*
X171209523Y-137661904D01*
X171857142Y-138042857D02*
X171590476Y-138042857D01*
X171590476Y-138461904D02*
X171590476Y-137661904D01*
X171971428Y-137661904D01*
X162562285Y-92136714D02*
X162524190Y-92174809D01*
X162409904Y-92212904D01*
X162333714Y-92212904D01*
X162219428Y-92174809D01*
X162143238Y-92098619D01*
X162105142Y-92022428D01*
X162067047Y-91870047D01*
X162067047Y-91755761D01*
X162105142Y-91603380D01*
X162143238Y-91527190D01*
X162219428Y-91451000D01*
X162333714Y-91412904D01*
X162409904Y-91412904D01*
X162524190Y-91451000D01*
X162562285Y-91489095D01*
X163057523Y-91831952D02*
X163057523Y-92212904D01*
X162790857Y-91412904D02*
X163057523Y-91831952D01*
X163324190Y-91412904D01*
X163514666Y-91412904D02*
X164048000Y-91412904D01*
X163705142Y-92212904D01*
X164809904Y-92136714D02*
X164771809Y-92174809D01*
X164657523Y-92212904D01*
X164581333Y-92212904D01*
X164467047Y-92174809D01*
X164390857Y-92098619D01*
X164352761Y-92022428D01*
X164314666Y-91870047D01*
X164314666Y-91755761D01*
X164352761Y-91603380D01*
X164390857Y-91527190D01*
X164467047Y-91451000D01*
X164581333Y-91412904D01*
X164657523Y-91412904D01*
X164771809Y-91451000D01*
X164809904Y-91489095D01*
X165495619Y-91412904D02*
X165343238Y-91412904D01*
X165267047Y-91451000D01*
X165228952Y-91489095D01*
X165152761Y-91603380D01*
X165114666Y-91755761D01*
X165114666Y-92060523D01*
X165152761Y-92136714D01*
X165190857Y-92174809D01*
X165267047Y-92212904D01*
X165419428Y-92212904D01*
X165495619Y-92174809D01*
X165533714Y-92136714D01*
X165571809Y-92060523D01*
X165571809Y-91870047D01*
X165533714Y-91793857D01*
X165495619Y-91755761D01*
X165419428Y-91717666D01*
X165267047Y-91717666D01*
X165190857Y-91755761D01*
X165152761Y-91793857D01*
X165114666Y-91870047D01*
X166028952Y-91755761D02*
X165952761Y-91717666D01*
X165914666Y-91679571D01*
X165876571Y-91603380D01*
X165876571Y-91565285D01*
X165914666Y-91489095D01*
X165952761Y-91451000D01*
X166028952Y-91412904D01*
X166181333Y-91412904D01*
X166257523Y-91451000D01*
X166295619Y-91489095D01*
X166333714Y-91565285D01*
X166333714Y-91603380D01*
X166295619Y-91679571D01*
X166257523Y-91717666D01*
X166181333Y-91755761D01*
X166028952Y-91755761D01*
X165952761Y-91793857D01*
X165914666Y-91831952D01*
X165876571Y-91908142D01*
X165876571Y-92060523D01*
X165914666Y-92136714D01*
X165952761Y-92174809D01*
X166028952Y-92212904D01*
X166181333Y-92212904D01*
X166257523Y-92174809D01*
X166295619Y-92136714D01*
X166333714Y-92060523D01*
X166333714Y-91908142D01*
X166295619Y-91831952D01*
X166257523Y-91793857D01*
X166181333Y-91755761D01*
X166828952Y-91412904D02*
X166905142Y-91412904D01*
X166981333Y-91451000D01*
X167019428Y-91489095D01*
X167057523Y-91565285D01*
X167095619Y-91717666D01*
X167095619Y-91908142D01*
X167057523Y-92060523D01*
X167019428Y-92136714D01*
X166981333Y-92174809D01*
X166905142Y-92212904D01*
X166828952Y-92212904D01*
X166752761Y-92174809D01*
X166714666Y-92136714D01*
X166676571Y-92060523D01*
X166638476Y-91908142D01*
X166638476Y-91717666D01*
X166676571Y-91565285D01*
X166714666Y-91489095D01*
X166752761Y-91451000D01*
X166828952Y-91412904D01*
X167857523Y-92212904D02*
X167400380Y-92212904D01*
X167628952Y-92212904D02*
X167628952Y-91412904D01*
X167552761Y-91527190D01*
X167476571Y-91603380D01*
X167400380Y-91641476D01*
X168124190Y-91412904D02*
X168619428Y-91412904D01*
X168352761Y-91717666D01*
X168467047Y-91717666D01*
X168543238Y-91755761D01*
X168581333Y-91793857D01*
X168619428Y-91870047D01*
X168619428Y-92060523D01*
X168581333Y-92136714D01*
X168543238Y-92174809D01*
X168467047Y-92212904D01*
X168238476Y-92212904D01*
X168162285Y-92174809D01*
X168124190Y-92136714D01*
X168924190Y-91984333D02*
X169305142Y-91984333D01*
X168848000Y-92212904D02*
X169114666Y-91412904D01*
X169381333Y-92212904D01*
X169457523Y-92289095D02*
X170067047Y-92289095D01*
X170600380Y-92212904D02*
X170600380Y-91412904D01*
X170600380Y-92174809D02*
X170524190Y-92212904D01*
X170371809Y-92212904D01*
X170295619Y-92174809D01*
X170257523Y-92136714D01*
X170219428Y-92060523D01*
X170219428Y-91831952D01*
X170257523Y-91755761D01*
X170295619Y-91717666D01*
X170371809Y-91679571D01*
X170524190Y-91679571D01*
X170600380Y-91717666D01*
X171286095Y-92174809D02*
X171209904Y-92212904D01*
X171057523Y-92212904D01*
X170981333Y-92174809D01*
X170943238Y-92098619D01*
X170943238Y-91793857D01*
X170981333Y-91717666D01*
X171057523Y-91679571D01*
X171209904Y-91679571D01*
X171286095Y-91717666D01*
X171324190Y-91793857D01*
X171324190Y-91870047D01*
X170943238Y-91946238D01*
X171590857Y-91679571D02*
X171781333Y-92212904D01*
X171971809Y-91679571D01*
X172086095Y-92289095D02*
X172695619Y-92289095D01*
X172886095Y-92212904D02*
X172886095Y-91412904D01*
X172962285Y-91908142D02*
X173190857Y-92212904D01*
X173190857Y-91679571D02*
X172886095Y-91984333D01*
X173533714Y-92212904D02*
X173533714Y-91679571D01*
X173533714Y-91412904D02*
X173495619Y-91451000D01*
X173533714Y-91489095D01*
X173571809Y-91451000D01*
X173533714Y-91412904D01*
X173533714Y-91489095D01*
X173800380Y-91679571D02*
X174105142Y-91679571D01*
X173914666Y-91412904D02*
X173914666Y-92098619D01*
X173952761Y-92174809D01*
X174028952Y-92212904D01*
X174105142Y-92212904D01*
X184543650Y-119584616D02*
X184543650Y-119051282D01*
X185343650Y-119394140D01*
X184810317Y-118403663D02*
X185343650Y-118403663D01*
X184505555Y-118594140D02*
X185076984Y-118784616D01*
X185076984Y-118289378D01*
X185343650Y-117603663D02*
X185343650Y-117984616D01*
X184543650Y-117984616D01*
X184543650Y-117451282D02*
X185343650Y-117184616D01*
X184543650Y-116917949D01*
X184810317Y-116308425D02*
X185343650Y-116308425D01*
X184505555Y-116498901D02*
X185076984Y-116689378D01*
X185076984Y-116194140D01*
X184543650Y-115736997D02*
X184543650Y-115660806D01*
X184581746Y-115584616D01*
X184619841Y-115546521D01*
X184696031Y-115508425D01*
X184848412Y-115470330D01*
X185038888Y-115470330D01*
X185191269Y-115508425D01*
X185267460Y-115546521D01*
X185305555Y-115584616D01*
X185343650Y-115660806D01*
X185343650Y-115736997D01*
X185305555Y-115813187D01*
X185267460Y-115851282D01*
X185191269Y-115889378D01*
X185038888Y-115927473D01*
X184848412Y-115927473D01*
X184696031Y-115889378D01*
X184619841Y-115851282D01*
X184581746Y-115813187D01*
X184543650Y-115736997D01*
X184543650Y-114784616D02*
X184543650Y-114936997D01*
X184581746Y-115013187D01*
X184619841Y-115051282D01*
X184734126Y-115127473D01*
X184886507Y-115165568D01*
X185191269Y-115165568D01*
X185267460Y-115127473D01*
X185305555Y-115089378D01*
X185343650Y-115013187D01*
X185343650Y-114860806D01*
X185305555Y-114784616D01*
X185267460Y-114746521D01*
X185191269Y-114708425D01*
X185000793Y-114708425D01*
X184924603Y-114746521D01*
X184886507Y-114784616D01*
X184848412Y-114860806D01*
X184848412Y-115013187D01*
X184886507Y-115089378D01*
X184924603Y-115127473D01*
X185000793Y-115165568D01*
X184543650Y-114022711D02*
X184543650Y-114175092D01*
X184581746Y-114251282D01*
X184619841Y-114289378D01*
X184734126Y-114365568D01*
X184886507Y-114403663D01*
X185191269Y-114403663D01*
X185267460Y-114365568D01*
X185305555Y-114327473D01*
X185343650Y-114251282D01*
X185343650Y-114098901D01*
X185305555Y-114022711D01*
X185267460Y-113984616D01*
X185191269Y-113946521D01*
X185000793Y-113946521D01*
X184924603Y-113984616D01*
X184886507Y-114022711D01*
X184848412Y-114098901D01*
X184848412Y-114251282D01*
X184886507Y-114327473D01*
X184924603Y-114365568D01*
X185000793Y-114403663D01*
X188985714Y-133611904D02*
X188604761Y-133611904D01*
X188604761Y-132811904D01*
X189252380Y-133192857D02*
X189519047Y-133192857D01*
X189633333Y-133611904D02*
X189252380Y-133611904D01*
X189252380Y-132811904D01*
X189633333Y-132811904D01*
X189976190Y-133611904D02*
X189976190Y-132811904D01*
X190166666Y-132811904D01*
X190280952Y-132850000D01*
X190357142Y-132926190D01*
X190395238Y-133002380D01*
X190433333Y-133154761D01*
X190433333Y-133269047D01*
X190395238Y-133421428D01*
X190357142Y-133497619D01*
X190280952Y-133573809D01*
X190166666Y-133611904D01*
X189976190Y-133611904D01*
X177604761Y-129611904D02*
X177147619Y-129611904D01*
X177376190Y-129611904D02*
X177376190Y-128811904D01*
X177300000Y-128926190D01*
X177223809Y-129002380D01*
X177147619Y-129040476D01*
X178100000Y-128811904D02*
X178176190Y-128811904D01*
X178252380Y-128850000D01*
X178290476Y-128888095D01*
X178328571Y-128964285D01*
X178366666Y-129116666D01*
X178366666Y-129307142D01*
X178328571Y-129459523D01*
X178290476Y-129535714D01*
X178252380Y-129573809D01*
X178176190Y-129611904D01*
X178100000Y-129611904D01*
X178023809Y-129573809D01*
X177985714Y-129535714D01*
X177947619Y-129459523D01*
X177909523Y-129307142D01*
X177909523Y-129116666D01*
X177947619Y-128964285D01*
X177985714Y-128888095D01*
X178023809Y-128850000D01*
X178100000Y-128811904D01*
X178861904Y-128811904D02*
X178938095Y-128811904D01*
X179014285Y-128850000D01*
X179052380Y-128888095D01*
X179090476Y-128964285D01*
X179128571Y-129116666D01*
X179128571Y-129307142D01*
X179090476Y-129459523D01*
X179052380Y-129535714D01*
X179014285Y-129573809D01*
X178938095Y-129611904D01*
X178861904Y-129611904D01*
X178785714Y-129573809D01*
X178747619Y-129535714D01*
X178709523Y-129459523D01*
X178671428Y-129307142D01*
X178671428Y-129116666D01*
X178709523Y-128964285D01*
X178747619Y-128888095D01*
X178785714Y-128850000D01*
X178861904Y-128811904D01*
X179471428Y-129078571D02*
X179471428Y-129611904D01*
X179471428Y-129154761D02*
X179509523Y-129116666D01*
X179585714Y-129078571D01*
X179700000Y-129078571D01*
X179776190Y-129116666D01*
X179814285Y-129192857D01*
X179814285Y-129611904D01*
D10*
X174061904Y-126618571D02*
X174061904Y-126123333D01*
X174366666Y-126390000D01*
X174366666Y-126275714D01*
X174404761Y-126199523D01*
X174442857Y-126161428D01*
X174519047Y-126123333D01*
X174709523Y-126123333D01*
X174785714Y-126161428D01*
X174823809Y-126199523D01*
X174861904Y-126275714D01*
X174861904Y-126504285D01*
X174823809Y-126580476D01*
X174785714Y-126618571D01*
X174061904Y-125856666D02*
X174061904Y-125361428D01*
X174366666Y-125628095D01*
X174366666Y-125513809D01*
X174404761Y-125437619D01*
X174442857Y-125399523D01*
X174519047Y-125361428D01*
X174709523Y-125361428D01*
X174785714Y-125399523D01*
X174823809Y-125437619D01*
X174861904Y-125513809D01*
X174861904Y-125742380D01*
X174823809Y-125818571D01*
X174785714Y-125856666D01*
X174061904Y-124866190D02*
X174061904Y-124790000D01*
X174100000Y-124713809D01*
X174138095Y-124675714D01*
X174214285Y-124637619D01*
X174366666Y-124599523D01*
X174557142Y-124599523D01*
X174709523Y-124637619D01*
X174785714Y-124675714D01*
X174823809Y-124713809D01*
X174861904Y-124790000D01*
X174861904Y-124866190D01*
X174823809Y-124942380D01*
X174785714Y-124980476D01*
X174709523Y-125018571D01*
X174557142Y-125056666D01*
X174366666Y-125056666D01*
X174214285Y-125018571D01*
X174138095Y-124980476D01*
X174100000Y-124942380D01*
X174061904Y-124866190D01*
X174861904Y-123799523D02*
X174480952Y-124066190D01*
X174861904Y-124256666D02*
X174061904Y-124256666D01*
X174061904Y-123951904D01*
X174100000Y-123875714D01*
X174138095Y-123837619D01*
X174214285Y-123799523D01*
X174328571Y-123799523D01*
X174404761Y-123837619D01*
X174442857Y-123875714D01*
X174480952Y-123951904D01*
X174480952Y-124256666D01*
D12*
D10*
X180126666Y-131663095D02*
X180164761Y-131625000D01*
X180240952Y-131586904D01*
X180431428Y-131586904D01*
X180507619Y-131625000D01*
X180545714Y-131663095D01*
X180583809Y-131739285D01*
X180583809Y-131815476D01*
X180545714Y-131929761D01*
X180088571Y-132386904D01*
X180583809Y-132386904D01*
X180926666Y-132386904D02*
X180926666Y-131586904D01*
X181002857Y-132082142D02*
X181231428Y-132386904D01*
X181231428Y-131853571D02*
X180926666Y-132158333D01*
X181536190Y-131663095D02*
X181574285Y-131625000D01*
X181650476Y-131586904D01*
X181840952Y-131586904D01*
X181917142Y-131625000D01*
X181955238Y-131663095D01*
X181993333Y-131739285D01*
X181993333Y-131815476D01*
X181955238Y-131929761D01*
X181498095Y-132386904D01*
X181993333Y-132386904D01*
D12*
D10*
X189888095Y-115183333D02*
X189850000Y-115145238D01*
X189811904Y-115069047D01*
X189811904Y-114878571D01*
X189850000Y-114802380D01*
X189888095Y-114764285D01*
X189964285Y-114726190D01*
X190040476Y-114726190D01*
X190154761Y-114764285D01*
X190611904Y-115221428D01*
X190611904Y-114726190D01*
X190611904Y-114383333D02*
X189811904Y-114383333D01*
X190307142Y-114307142D02*
X190611904Y-114078571D01*
X190078571Y-114078571D02*
X190383333Y-114383333D01*
X189888095Y-113773809D02*
X189850000Y-113735714D01*
X189811904Y-113659523D01*
X189811904Y-113469047D01*
X189850000Y-113392857D01*
X189888095Y-113354761D01*
X189964285Y-113316666D01*
X190040476Y-113316666D01*
X190154761Y-113354761D01*
X190611904Y-113811904D01*
X190611904Y-113316666D01*
D12*
M02*
