G04 #@! TF.GenerationSoftware,KiCad,Pcbnew,(5.1.4)-1*
G04 #@! TF.CreationDate,2019-10-18T12:55:03+02:00*
G04 #@! TF.ProjectId,FV1-usbprog,4656312d-7573-4627-9072-6f672e6b6963,rev?*
G04 #@! TF.SameCoordinates,Original*
G04 #@! TF.FileFunction,Legend,Bot*
G04 #@! TF.FilePolarity,Positive*
%FSLAX46Y46*%
G04 Gerber Fmt 4.6, Leading zero omitted, Abs format (unit mm)*
G04 Created by KiCad (PCBNEW (5.1.4)-1) date 2019-10-18 12:55:03*
%MOMM*%
%LPD*%
G04 APERTURE LIST*
%ADD10C,0.250000*%
%ADD11C,0.200000*%
G04 APERTURE END LIST*
D10*
X190738095Y-138583333D02*
X190785714Y-138535714D01*
X190880952Y-138392857D01*
X190928571Y-138297619D01*
X190976190Y-138154761D01*
X191023809Y-137916666D01*
X191023809Y-137726190D01*
X190976190Y-137488095D01*
X190928571Y-137345238D01*
X190880952Y-137250000D01*
X190785714Y-137107142D01*
X190738095Y-137059523D01*
X189928571Y-138154761D02*
X190023809Y-138202380D01*
X190214285Y-138202380D01*
X190309523Y-138154761D01*
X190357142Y-138107142D01*
X190404761Y-138011904D01*
X190404761Y-137726190D01*
X190357142Y-137630952D01*
X190309523Y-137583333D01*
X190214285Y-137535714D01*
X190023809Y-137535714D01*
X189928571Y-137583333D01*
X189595238Y-138583333D02*
X189547619Y-138535714D01*
X189452380Y-138392857D01*
X189404761Y-138297619D01*
X189357142Y-138154761D01*
X189309523Y-137916666D01*
X189309523Y-137726190D01*
X189357142Y-137488095D01*
X189404761Y-137345238D01*
X189452380Y-137250000D01*
X189547619Y-137107142D01*
X189595238Y-137059523D01*
X188119047Y-137297619D02*
X188071428Y-137250000D01*
X187976190Y-137202380D01*
X187738095Y-137202380D01*
X187642857Y-137250000D01*
X187595238Y-137297619D01*
X187547619Y-137392857D01*
X187547619Y-137488095D01*
X187595238Y-137630952D01*
X188166666Y-138202380D01*
X187547619Y-138202380D01*
X186928571Y-137202380D02*
X186833333Y-137202380D01*
X186738095Y-137250000D01*
X186690476Y-137297619D01*
X186642857Y-137392857D01*
X186595238Y-137583333D01*
X186595238Y-137821428D01*
X186642857Y-138011904D01*
X186690476Y-138107142D01*
X186738095Y-138154761D01*
X186833333Y-138202380D01*
X186928571Y-138202380D01*
X187023809Y-138154761D01*
X187071428Y-138107142D01*
X187119047Y-138011904D01*
X187166666Y-137821428D01*
X187166666Y-137583333D01*
X187119047Y-137392857D01*
X187071428Y-137297619D01*
X187023809Y-137250000D01*
X186928571Y-137202380D01*
X185642857Y-138202380D02*
X186214285Y-138202380D01*
X185928571Y-138202380D02*
X185928571Y-137202380D01*
X186023809Y-137345238D01*
X186119047Y-137440476D01*
X186214285Y-137488095D01*
X184738095Y-137202380D02*
X185214285Y-137202380D01*
X185261904Y-137678571D01*
X185214285Y-137630952D01*
X185119047Y-137583333D01*
X184880952Y-137583333D01*
X184785714Y-137630952D01*
X184738095Y-137678571D01*
X184690476Y-137773809D01*
X184690476Y-138011904D01*
X184738095Y-138107142D01*
X184785714Y-138154761D01*
X184880952Y-138202380D01*
X185119047Y-138202380D01*
X185214285Y-138154761D01*
X185261904Y-138107142D01*
X183595238Y-137535714D02*
X183404761Y-138202380D01*
X183214285Y-137726190D01*
X183023809Y-138202380D01*
X182833333Y-137535714D01*
X182547619Y-137535714D02*
X182357142Y-138202380D01*
X182166666Y-137726190D01*
X181976190Y-138202380D01*
X181785714Y-137535714D01*
X181500000Y-137535714D02*
X181309523Y-138202380D01*
X181119047Y-137726190D01*
X180928571Y-138202380D01*
X180738095Y-137535714D01*
X180357142Y-138107142D02*
X180309523Y-138154761D01*
X180357142Y-138202380D01*
X180404761Y-138154761D01*
X180357142Y-138107142D01*
X180357142Y-138202380D01*
X179880952Y-138202380D02*
X179880952Y-137202380D01*
X179452380Y-138202380D02*
X179452380Y-137678571D01*
X179500000Y-137583333D01*
X179595238Y-137535714D01*
X179738095Y-137535714D01*
X179833333Y-137583333D01*
X179880952Y-137630952D01*
X178595238Y-138154761D02*
X178690476Y-138202380D01*
X178880952Y-138202380D01*
X178976190Y-138154761D01*
X179023809Y-138059523D01*
X179023809Y-137678571D01*
X178976190Y-137583333D01*
X178880952Y-137535714D01*
X178690476Y-137535714D01*
X178595238Y-137583333D01*
X178547619Y-137678571D01*
X178547619Y-137773809D01*
X179023809Y-137869047D01*
X178214285Y-138202380D02*
X177690476Y-137535714D01*
X178214285Y-137535714D02*
X177690476Y-138202380D01*
X176928571Y-138154761D02*
X177023809Y-138202380D01*
X177214285Y-138202380D01*
X177309523Y-138154761D01*
X177357142Y-138059523D01*
X177357142Y-137678571D01*
X177309523Y-137583333D01*
X177214285Y-137535714D01*
X177023809Y-137535714D01*
X176928571Y-137583333D01*
X176880952Y-137678571D01*
X176880952Y-137773809D01*
X177357142Y-137869047D01*
X176023809Y-137535714D02*
X176023809Y-138345238D01*
X176071428Y-138440476D01*
X176119047Y-138488095D01*
X176214285Y-138535714D01*
X176357142Y-138535714D01*
X176452380Y-138488095D01*
X176023809Y-138154761D02*
X176119047Y-138202380D01*
X176309523Y-138202380D01*
X176404761Y-138154761D01*
X176452380Y-138107142D01*
X176500000Y-138011904D01*
X176500000Y-137726190D01*
X176452380Y-137630952D01*
X176404761Y-137583333D01*
X176309523Y-137535714D01*
X176119047Y-137535714D01*
X176023809Y-137583333D01*
X175119047Y-137535714D02*
X175119047Y-138202380D01*
X175547619Y-137535714D02*
X175547619Y-138059523D01*
X175500000Y-138154761D01*
X175404761Y-138202380D01*
X175261904Y-138202380D01*
X175166666Y-138154761D01*
X175119047Y-138107142D01*
X174642857Y-138202380D02*
X174642857Y-137535714D01*
X174642857Y-137202380D02*
X174690476Y-137250000D01*
X174642857Y-137297619D01*
X174595238Y-137250000D01*
X174642857Y-137202380D01*
X174642857Y-137297619D01*
X174309523Y-137535714D02*
X173928571Y-137535714D01*
X174166666Y-137202380D02*
X174166666Y-138059523D01*
X174119047Y-138154761D01*
X174023809Y-138202380D01*
X173928571Y-138202380D01*
X173166666Y-138202380D02*
X173166666Y-137678571D01*
X173214285Y-137583333D01*
X173309523Y-137535714D01*
X173500000Y-137535714D01*
X173595238Y-137583333D01*
X173166666Y-138154761D02*
X173261904Y-138202380D01*
X173500000Y-138202380D01*
X173595238Y-138154761D01*
X173642857Y-138059523D01*
X173642857Y-137964285D01*
X173595238Y-137869047D01*
X173500000Y-137821428D01*
X173261904Y-137821428D01*
X173166666Y-137773809D01*
X172690476Y-138202380D02*
X172690476Y-137535714D01*
X172690476Y-137726190D02*
X172642857Y-137630952D01*
X172595238Y-137583333D01*
X172500000Y-137535714D01*
X172404761Y-137535714D01*
X172071428Y-138107142D02*
X172023809Y-138154761D01*
X172071428Y-138202380D01*
X172119047Y-138154761D01*
X172071428Y-138107142D01*
X172071428Y-138202380D01*
X171166666Y-138154761D02*
X171261904Y-138202380D01*
X171452380Y-138202380D01*
X171547619Y-138154761D01*
X171595238Y-138107142D01*
X171642857Y-138011904D01*
X171642857Y-137726190D01*
X171595238Y-137630952D01*
X171547619Y-137583333D01*
X171452380Y-137535714D01*
X171261904Y-137535714D01*
X171166666Y-137583333D01*
X170595238Y-138202380D02*
X170690476Y-138154761D01*
X170738095Y-138107142D01*
X170785714Y-138011904D01*
X170785714Y-137726190D01*
X170738095Y-137630952D01*
X170690476Y-137583333D01*
X170595238Y-137535714D01*
X170452380Y-137535714D01*
X170357142Y-137583333D01*
X170309523Y-137630952D01*
X170261904Y-137726190D01*
X170261904Y-138011904D01*
X170309523Y-138107142D01*
X170357142Y-138154761D01*
X170452380Y-138202380D01*
X170595238Y-138202380D01*
X169833333Y-138202380D02*
X169833333Y-137535714D01*
X169833333Y-137630952D02*
X169785714Y-137583333D01*
X169690476Y-137535714D01*
X169547619Y-137535714D01*
X169452380Y-137583333D01*
X169404761Y-137678571D01*
X169404761Y-138202380D01*
X169404761Y-137678571D02*
X169357142Y-137583333D01*
X169261904Y-137535714D01*
X169119047Y-137535714D01*
X169023809Y-137583333D01*
X168976190Y-137678571D01*
X168976190Y-138202380D01*
X169778571Y-108423809D02*
X169778571Y-108757142D01*
X170302380Y-108900000D02*
X170302380Y-108423809D01*
X169302380Y-108423809D01*
X169302380Y-108900000D01*
X169302380Y-109233333D02*
X169302380Y-109900000D01*
X170302380Y-109233333D01*
X170302380Y-109900000D01*
X169921428Y-110280952D02*
X169921428Y-111042857D01*
X169302380Y-111519047D02*
X170111904Y-111519047D01*
X170207142Y-111566666D01*
X170254761Y-111614285D01*
X170302380Y-111709523D01*
X170302380Y-111900000D01*
X170254761Y-111995238D01*
X170207142Y-112042857D01*
X170111904Y-112090476D01*
X169302380Y-112090476D01*
X170254761Y-112519047D02*
X170302380Y-112661904D01*
X170302380Y-112900000D01*
X170254761Y-112995238D01*
X170207142Y-113042857D01*
X170111904Y-113090476D01*
X170016666Y-113090476D01*
X169921428Y-113042857D01*
X169873809Y-112995238D01*
X169826190Y-112900000D01*
X169778571Y-112709523D01*
X169730952Y-112614285D01*
X169683333Y-112566666D01*
X169588095Y-112519047D01*
X169492857Y-112519047D01*
X169397619Y-112566666D01*
X169350000Y-112614285D01*
X169302380Y-112709523D01*
X169302380Y-112947619D01*
X169350000Y-113090476D01*
X169778571Y-113852380D02*
X169826190Y-113995238D01*
X169873809Y-114042857D01*
X169969047Y-114090476D01*
X170111904Y-114090476D01*
X170207142Y-114042857D01*
X170254761Y-113995238D01*
X170302380Y-113900000D01*
X170302380Y-113519047D01*
X169302380Y-113519047D01*
X169302380Y-113852380D01*
X169350000Y-113947619D01*
X169397619Y-113995238D01*
X169492857Y-114042857D01*
X169588095Y-114042857D01*
X169683333Y-113995238D01*
X169730952Y-113947619D01*
X169778571Y-113852380D01*
X169778571Y-113519047D01*
X169778571Y-115614285D02*
X169778571Y-115280952D01*
X170302380Y-115280952D02*
X169302380Y-115280952D01*
X169302380Y-115757142D01*
X169302380Y-116042857D02*
X170302380Y-116709523D01*
X169302380Y-116709523D02*
X170302380Y-116042857D01*
X169397619Y-117042857D02*
X169350000Y-117090476D01*
X169302380Y-117185714D01*
X169302380Y-117423809D01*
X169350000Y-117519047D01*
X169397619Y-117566666D01*
X169492857Y-117614285D01*
X169588095Y-117614285D01*
X169730952Y-117566666D01*
X170302380Y-116995238D01*
X170302380Y-117614285D01*
X170302380Y-118519047D02*
X170302380Y-118042857D01*
X169302380Y-118042857D01*
X170302380Y-118852380D02*
X169302380Y-118852380D01*
X169302380Y-119233333D01*
X169350000Y-119328571D01*
X169397619Y-119376190D01*
X169492857Y-119423809D01*
X169635714Y-119423809D01*
X169730952Y-119376190D01*
X169778571Y-119328571D01*
X169826190Y-119233333D01*
X169826190Y-118852380D01*
X171807142Y-109009523D02*
X171854761Y-108961904D01*
X171902380Y-108819047D01*
X171902380Y-108723809D01*
X171854761Y-108580952D01*
X171759523Y-108485714D01*
X171664285Y-108438095D01*
X171473809Y-108390476D01*
X171330952Y-108390476D01*
X171140476Y-108438095D01*
X171045238Y-108485714D01*
X170950000Y-108580952D01*
X170902380Y-108723809D01*
X170902380Y-108819047D01*
X170950000Y-108961904D01*
X170997619Y-109009523D01*
X171426190Y-109628571D02*
X171902380Y-109628571D01*
X170902380Y-109295238D02*
X171426190Y-109628571D01*
X170902380Y-109961904D01*
X170902380Y-110200000D02*
X170902380Y-110866666D01*
X171902380Y-110438095D01*
X171807142Y-111819047D02*
X171854761Y-111771428D01*
X171902380Y-111628571D01*
X171902380Y-111533333D01*
X171854761Y-111390476D01*
X171759523Y-111295238D01*
X171664285Y-111247619D01*
X171473809Y-111200000D01*
X171330952Y-111200000D01*
X171140476Y-111247619D01*
X171045238Y-111295238D01*
X170950000Y-111390476D01*
X170902380Y-111533333D01*
X170902380Y-111628571D01*
X170950000Y-111771428D01*
X170997619Y-111819047D01*
X170902380Y-112676190D02*
X170902380Y-112485714D01*
X170950000Y-112390476D01*
X170997619Y-112342857D01*
X171140476Y-112247619D01*
X171330952Y-112200000D01*
X171711904Y-112200000D01*
X171807142Y-112247619D01*
X171854761Y-112295238D01*
X171902380Y-112390476D01*
X171902380Y-112580952D01*
X171854761Y-112676190D01*
X171807142Y-112723809D01*
X171711904Y-112771428D01*
X171473809Y-112771428D01*
X171378571Y-112723809D01*
X171330952Y-112676190D01*
X171283333Y-112580952D01*
X171283333Y-112390476D01*
X171330952Y-112295238D01*
X171378571Y-112247619D01*
X171473809Y-112200000D01*
X171330952Y-113342857D02*
X171283333Y-113247619D01*
X171235714Y-113200000D01*
X171140476Y-113152380D01*
X171092857Y-113152380D01*
X170997619Y-113200000D01*
X170950000Y-113247619D01*
X170902380Y-113342857D01*
X170902380Y-113533333D01*
X170950000Y-113628571D01*
X170997619Y-113676190D01*
X171092857Y-113723809D01*
X171140476Y-113723809D01*
X171235714Y-113676190D01*
X171283333Y-113628571D01*
X171330952Y-113533333D01*
X171330952Y-113342857D01*
X171378571Y-113247619D01*
X171426190Y-113200000D01*
X171521428Y-113152380D01*
X171711904Y-113152380D01*
X171807142Y-113200000D01*
X171854761Y-113247619D01*
X171902380Y-113342857D01*
X171902380Y-113533333D01*
X171854761Y-113628571D01*
X171807142Y-113676190D01*
X171711904Y-113723809D01*
X171521428Y-113723809D01*
X171426190Y-113676190D01*
X171378571Y-113628571D01*
X171330952Y-113533333D01*
X170902380Y-114342857D02*
X170902380Y-114438095D01*
X170950000Y-114533333D01*
X170997619Y-114580952D01*
X171092857Y-114628571D01*
X171283333Y-114676190D01*
X171521428Y-114676190D01*
X171711904Y-114628571D01*
X171807142Y-114580952D01*
X171854761Y-114533333D01*
X171902380Y-114438095D01*
X171902380Y-114342857D01*
X171854761Y-114247619D01*
X171807142Y-114200000D01*
X171711904Y-114152380D01*
X171521428Y-114104761D01*
X171283333Y-114104761D01*
X171092857Y-114152380D01*
X170997619Y-114200000D01*
X170950000Y-114247619D01*
X170902380Y-114342857D01*
X171902380Y-115628571D02*
X171902380Y-115057142D01*
X171902380Y-115342857D02*
X170902380Y-115342857D01*
X171045238Y-115247619D01*
X171140476Y-115152380D01*
X171188095Y-115057142D01*
X170902380Y-115961904D02*
X170902380Y-116580952D01*
X171283333Y-116247619D01*
X171283333Y-116390476D01*
X171330952Y-116485714D01*
X171378571Y-116533333D01*
X171473809Y-116580952D01*
X171711904Y-116580952D01*
X171807142Y-116533333D01*
X171854761Y-116485714D01*
X171902380Y-116390476D01*
X171902380Y-116104761D01*
X171854761Y-116009523D01*
X171807142Y-115961904D01*
X171616666Y-116961904D02*
X171616666Y-117438095D01*
X171902380Y-116866666D02*
X170902380Y-117200000D01*
X171902380Y-117533333D01*
X171902380Y-118628571D02*
X170902380Y-118628571D01*
X171616666Y-118961904D01*
X170902380Y-119295238D01*
X171902380Y-119295238D01*
X171902380Y-119771428D02*
X170902380Y-119771428D01*
X171902380Y-120247619D02*
X170902380Y-120247619D01*
X171902380Y-120819047D01*
X170902380Y-120819047D01*
X171902380Y-121295238D02*
X170902380Y-121295238D01*
X171378571Y-122866666D02*
X171426190Y-123009523D01*
X171473809Y-123057142D01*
X171569047Y-123104761D01*
X171711904Y-123104761D01*
X171807142Y-123057142D01*
X171854761Y-123009523D01*
X171902380Y-122914285D01*
X171902380Y-122533333D01*
X170902380Y-122533333D01*
X170902380Y-122866666D01*
X170950000Y-122961904D01*
X170997619Y-123009523D01*
X171092857Y-123057142D01*
X171188095Y-123057142D01*
X171283333Y-123009523D01*
X171330952Y-122961904D01*
X171378571Y-122866666D01*
X171378571Y-122533333D01*
X170902380Y-123723809D02*
X170902380Y-123914285D01*
X170950000Y-124009523D01*
X171045238Y-124104761D01*
X171235714Y-124152380D01*
X171569047Y-124152380D01*
X171759523Y-124104761D01*
X171854761Y-124009523D01*
X171902380Y-123914285D01*
X171902380Y-123723809D01*
X171854761Y-123628571D01*
X171759523Y-123533333D01*
X171569047Y-123485714D01*
X171235714Y-123485714D01*
X171045238Y-123533333D01*
X170950000Y-123628571D01*
X170902380Y-123723809D01*
X171616666Y-124533333D02*
X171616666Y-125009523D01*
X171902380Y-124438095D02*
X170902380Y-124771428D01*
X171902380Y-125104761D01*
X171902380Y-126009523D02*
X171426190Y-125676190D01*
X171902380Y-125438095D02*
X170902380Y-125438095D01*
X170902380Y-125819047D01*
X170950000Y-125914285D01*
X170997619Y-125961904D01*
X171092857Y-126009523D01*
X171235714Y-126009523D01*
X171330952Y-125961904D01*
X171378571Y-125914285D01*
X171426190Y-125819047D01*
X171426190Y-125438095D01*
X171902380Y-126438095D02*
X170902380Y-126438095D01*
X170902380Y-126676190D01*
X170950000Y-126819047D01*
X171045238Y-126914285D01*
X171140476Y-126961904D01*
X171330952Y-127009523D01*
X171473809Y-127009523D01*
X171664285Y-126961904D01*
X171759523Y-126914285D01*
X171854761Y-126819047D01*
X171902380Y-126676190D01*
X171902380Y-126438095D01*
D11*
X163600000Y-108250000D02*
X163600000Y-133250000D01*
X168900000Y-108250000D02*
X168900000Y-133250000D01*
X191600000Y-108250000D02*
X191600000Y-133250000D01*
X196800000Y-108250000D02*
X196800000Y-133250000D01*
M02*
