G04 #@! TF.FileFunction,Legend,Bot*
%FSLAX46Y46*%
G04 Gerber Fmt 4.6, Leading zero omitted, Abs format (unit mm)*
G04 Created by KiCad (PCBNEW (2015-08-16 BZR 6096)-product) date 16/08/2015 20:52:47*
%MOMM*%
G01*
G04 APERTURE LIST*
%ADD10C,0.200000*%
%ADD11C,0.250000*%
G04 APERTURE END LIST*
D10*
D11*
X190738095Y-138583333D02*
X190785715Y-138535714D01*
X190880953Y-138392857D01*
X190928572Y-138297619D01*
X190976191Y-138154762D01*
X191023810Y-137916667D01*
X191023810Y-137726190D01*
X190976191Y-137488095D01*
X190928572Y-137345238D01*
X190880953Y-137250000D01*
X190785715Y-137107143D01*
X190738095Y-137059524D01*
X189928571Y-138154762D02*
X190023809Y-138202381D01*
X190214286Y-138202381D01*
X190309524Y-138154762D01*
X190357143Y-138107143D01*
X190404762Y-138011905D01*
X190404762Y-137726190D01*
X190357143Y-137630952D01*
X190309524Y-137583333D01*
X190214286Y-137535714D01*
X190023809Y-137535714D01*
X189928571Y-137583333D01*
X189595238Y-138583333D02*
X189547619Y-138535714D01*
X189452381Y-138392857D01*
X189404762Y-138297619D01*
X189357143Y-138154762D01*
X189309524Y-137916667D01*
X189309524Y-137726190D01*
X189357143Y-137488095D01*
X189404762Y-137345238D01*
X189452381Y-137250000D01*
X189547619Y-137107143D01*
X189595238Y-137059524D01*
X188119047Y-137297619D02*
X188071428Y-137250000D01*
X187976190Y-137202381D01*
X187738094Y-137202381D01*
X187642856Y-137250000D01*
X187595237Y-137297619D01*
X187547618Y-137392857D01*
X187547618Y-137488095D01*
X187595237Y-137630952D01*
X188166666Y-138202381D01*
X187547618Y-138202381D01*
X186928571Y-137202381D02*
X186833332Y-137202381D01*
X186738094Y-137250000D01*
X186690475Y-137297619D01*
X186642856Y-137392857D01*
X186595237Y-137583333D01*
X186595237Y-137821429D01*
X186642856Y-138011905D01*
X186690475Y-138107143D01*
X186738094Y-138154762D01*
X186833332Y-138202381D01*
X186928571Y-138202381D01*
X187023809Y-138154762D01*
X187071428Y-138107143D01*
X187119047Y-138011905D01*
X187166666Y-137821429D01*
X187166666Y-137583333D01*
X187119047Y-137392857D01*
X187071428Y-137297619D01*
X187023809Y-137250000D01*
X186928571Y-137202381D01*
X185642856Y-138202381D02*
X186214285Y-138202381D01*
X185928571Y-138202381D02*
X185928571Y-137202381D01*
X186023809Y-137345238D01*
X186119047Y-137440476D01*
X186214285Y-137488095D01*
X184738094Y-137202381D02*
X185214285Y-137202381D01*
X185261904Y-137678571D01*
X185214285Y-137630952D01*
X185119047Y-137583333D01*
X184880951Y-137583333D01*
X184785713Y-137630952D01*
X184738094Y-137678571D01*
X184690475Y-137773810D01*
X184690475Y-138011905D01*
X184738094Y-138107143D01*
X184785713Y-138154762D01*
X184880951Y-138202381D01*
X185119047Y-138202381D01*
X185214285Y-138154762D01*
X185261904Y-138107143D01*
X183595237Y-137535714D02*
X183404761Y-138202381D01*
X183214284Y-137726190D01*
X183023808Y-138202381D01*
X182833332Y-137535714D01*
X182547618Y-137535714D02*
X182357142Y-138202381D01*
X182166665Y-137726190D01*
X181976189Y-138202381D01*
X181785713Y-137535714D01*
X181499999Y-137535714D02*
X181309523Y-138202381D01*
X181119046Y-137726190D01*
X180928570Y-138202381D01*
X180738094Y-137535714D01*
X180357142Y-138107143D02*
X180309523Y-138154762D01*
X180357142Y-138202381D01*
X180404761Y-138154762D01*
X180357142Y-138107143D01*
X180357142Y-138202381D01*
X179880952Y-138202381D02*
X179880952Y-137202381D01*
X179452380Y-138202381D02*
X179452380Y-137678571D01*
X179499999Y-137583333D01*
X179595237Y-137535714D01*
X179738095Y-137535714D01*
X179833333Y-137583333D01*
X179880952Y-137630952D01*
X178595237Y-138154762D02*
X178690475Y-138202381D01*
X178880952Y-138202381D01*
X178976190Y-138154762D01*
X179023809Y-138059524D01*
X179023809Y-137678571D01*
X178976190Y-137583333D01*
X178880952Y-137535714D01*
X178690475Y-137535714D01*
X178595237Y-137583333D01*
X178547618Y-137678571D01*
X178547618Y-137773810D01*
X179023809Y-137869048D01*
X178214285Y-138202381D02*
X177690475Y-137535714D01*
X178214285Y-137535714D02*
X177690475Y-138202381D01*
X176928570Y-138154762D02*
X177023808Y-138202381D01*
X177214285Y-138202381D01*
X177309523Y-138154762D01*
X177357142Y-138059524D01*
X177357142Y-137678571D01*
X177309523Y-137583333D01*
X177214285Y-137535714D01*
X177023808Y-137535714D01*
X176928570Y-137583333D01*
X176880951Y-137678571D01*
X176880951Y-137773810D01*
X177357142Y-137869048D01*
X176023808Y-137535714D02*
X176023808Y-138345238D01*
X176071427Y-138440476D01*
X176119046Y-138488095D01*
X176214285Y-138535714D01*
X176357142Y-138535714D01*
X176452380Y-138488095D01*
X176023808Y-138154762D02*
X176119046Y-138202381D01*
X176309523Y-138202381D01*
X176404761Y-138154762D01*
X176452380Y-138107143D01*
X176499999Y-138011905D01*
X176499999Y-137726190D01*
X176452380Y-137630952D01*
X176404761Y-137583333D01*
X176309523Y-137535714D01*
X176119046Y-137535714D01*
X176023808Y-137583333D01*
X175119046Y-137535714D02*
X175119046Y-138202381D01*
X175547618Y-137535714D02*
X175547618Y-138059524D01*
X175499999Y-138154762D01*
X175404761Y-138202381D01*
X175261903Y-138202381D01*
X175166665Y-138154762D01*
X175119046Y-138107143D01*
X174642856Y-138202381D02*
X174642856Y-137535714D01*
X174642856Y-137202381D02*
X174690475Y-137250000D01*
X174642856Y-137297619D01*
X174595237Y-137250000D01*
X174642856Y-137202381D01*
X174642856Y-137297619D01*
X174309523Y-137535714D02*
X173928571Y-137535714D01*
X174166666Y-137202381D02*
X174166666Y-138059524D01*
X174119047Y-138154762D01*
X174023809Y-138202381D01*
X173928571Y-138202381D01*
X173166665Y-138202381D02*
X173166665Y-137678571D01*
X173214284Y-137583333D01*
X173309522Y-137535714D01*
X173499999Y-137535714D01*
X173595237Y-137583333D01*
X173166665Y-138154762D02*
X173261903Y-138202381D01*
X173499999Y-138202381D01*
X173595237Y-138154762D01*
X173642856Y-138059524D01*
X173642856Y-137964286D01*
X173595237Y-137869048D01*
X173499999Y-137821429D01*
X173261903Y-137821429D01*
X173166665Y-137773810D01*
X172690475Y-138202381D02*
X172690475Y-137535714D01*
X172690475Y-137726190D02*
X172642856Y-137630952D01*
X172595237Y-137583333D01*
X172499999Y-137535714D01*
X172404760Y-137535714D01*
X172071427Y-138107143D02*
X172023808Y-138154762D01*
X172071427Y-138202381D01*
X172119046Y-138154762D01*
X172071427Y-138107143D01*
X172071427Y-138202381D01*
X171166665Y-138154762D02*
X171261903Y-138202381D01*
X171452380Y-138202381D01*
X171547618Y-138154762D01*
X171595237Y-138107143D01*
X171642856Y-138011905D01*
X171642856Y-137726190D01*
X171595237Y-137630952D01*
X171547618Y-137583333D01*
X171452380Y-137535714D01*
X171261903Y-137535714D01*
X171166665Y-137583333D01*
X170595237Y-138202381D02*
X170690475Y-138154762D01*
X170738094Y-138107143D01*
X170785713Y-138011905D01*
X170785713Y-137726190D01*
X170738094Y-137630952D01*
X170690475Y-137583333D01*
X170595237Y-137535714D01*
X170452379Y-137535714D01*
X170357141Y-137583333D01*
X170309522Y-137630952D01*
X170261903Y-137726190D01*
X170261903Y-138011905D01*
X170309522Y-138107143D01*
X170357141Y-138154762D01*
X170452379Y-138202381D01*
X170595237Y-138202381D01*
X169833332Y-138202381D02*
X169833332Y-137535714D01*
X169833332Y-137630952D02*
X169785713Y-137583333D01*
X169690475Y-137535714D01*
X169547617Y-137535714D01*
X169452379Y-137583333D01*
X169404760Y-137678571D01*
X169404760Y-138202381D01*
X169404760Y-137678571D02*
X169357141Y-137583333D01*
X169261903Y-137535714D01*
X169119046Y-137535714D01*
X169023808Y-137583333D01*
X168976189Y-137678571D01*
X168976189Y-138202381D01*
X169778571Y-108423809D02*
X169778571Y-108757143D01*
X170302381Y-108900000D02*
X170302381Y-108423809D01*
X169302381Y-108423809D01*
X169302381Y-108900000D01*
X169302381Y-109233333D02*
X169302381Y-109900000D01*
X170302381Y-109233333D01*
X170302381Y-109900000D01*
X169921429Y-110280952D02*
X169921429Y-111042857D01*
X169302381Y-111519047D02*
X170111905Y-111519047D01*
X170207143Y-111566666D01*
X170254762Y-111614285D01*
X170302381Y-111709523D01*
X170302381Y-111900000D01*
X170254762Y-111995238D01*
X170207143Y-112042857D01*
X170111905Y-112090476D01*
X169302381Y-112090476D01*
X170254762Y-112519047D02*
X170302381Y-112661904D01*
X170302381Y-112900000D01*
X170254762Y-112995238D01*
X170207143Y-113042857D01*
X170111905Y-113090476D01*
X170016667Y-113090476D01*
X169921429Y-113042857D01*
X169873810Y-112995238D01*
X169826190Y-112900000D01*
X169778571Y-112709523D01*
X169730952Y-112614285D01*
X169683333Y-112566666D01*
X169588095Y-112519047D01*
X169492857Y-112519047D01*
X169397619Y-112566666D01*
X169350000Y-112614285D01*
X169302381Y-112709523D01*
X169302381Y-112947619D01*
X169350000Y-113090476D01*
X169778571Y-113852381D02*
X169826190Y-113995238D01*
X169873810Y-114042857D01*
X169969048Y-114090476D01*
X170111905Y-114090476D01*
X170207143Y-114042857D01*
X170254762Y-113995238D01*
X170302381Y-113900000D01*
X170302381Y-113519047D01*
X169302381Y-113519047D01*
X169302381Y-113852381D01*
X169350000Y-113947619D01*
X169397619Y-113995238D01*
X169492857Y-114042857D01*
X169588095Y-114042857D01*
X169683333Y-113995238D01*
X169730952Y-113947619D01*
X169778571Y-113852381D01*
X169778571Y-113519047D01*
X169778571Y-115614286D02*
X169778571Y-115280952D01*
X170302381Y-115280952D02*
X169302381Y-115280952D01*
X169302381Y-115757143D01*
X169302381Y-116042857D02*
X170302381Y-116709524D01*
X169302381Y-116709524D02*
X170302381Y-116042857D01*
X169397619Y-117042857D02*
X169350000Y-117090476D01*
X169302381Y-117185714D01*
X169302381Y-117423810D01*
X169350000Y-117519048D01*
X169397619Y-117566667D01*
X169492857Y-117614286D01*
X169588095Y-117614286D01*
X169730952Y-117566667D01*
X170302381Y-116995238D01*
X170302381Y-117614286D01*
X170302381Y-118519048D02*
X170302381Y-118042857D01*
X169302381Y-118042857D01*
X170302381Y-118852381D02*
X169302381Y-118852381D01*
X169302381Y-119233334D01*
X169350000Y-119328572D01*
X169397619Y-119376191D01*
X169492857Y-119423810D01*
X169635714Y-119423810D01*
X169730952Y-119376191D01*
X169778571Y-119328572D01*
X169826190Y-119233334D01*
X169826190Y-118852381D01*
X171807143Y-109009524D02*
X171854762Y-108961905D01*
X171902381Y-108819048D01*
X171902381Y-108723810D01*
X171854762Y-108580952D01*
X171759524Y-108485714D01*
X171664286Y-108438095D01*
X171473810Y-108390476D01*
X171330952Y-108390476D01*
X171140476Y-108438095D01*
X171045238Y-108485714D01*
X170950000Y-108580952D01*
X170902381Y-108723810D01*
X170902381Y-108819048D01*
X170950000Y-108961905D01*
X170997619Y-109009524D01*
X171426190Y-109628571D02*
X171902381Y-109628571D01*
X170902381Y-109295238D02*
X171426190Y-109628571D01*
X170902381Y-109961905D01*
X170902381Y-110200000D02*
X170902381Y-110866667D01*
X171902381Y-110438095D01*
X171807143Y-111819048D02*
X171854762Y-111771429D01*
X171902381Y-111628572D01*
X171902381Y-111533334D01*
X171854762Y-111390476D01*
X171759524Y-111295238D01*
X171664286Y-111247619D01*
X171473810Y-111200000D01*
X171330952Y-111200000D01*
X171140476Y-111247619D01*
X171045238Y-111295238D01*
X170950000Y-111390476D01*
X170902381Y-111533334D01*
X170902381Y-111628572D01*
X170950000Y-111771429D01*
X170997619Y-111819048D01*
X170902381Y-112676191D02*
X170902381Y-112485714D01*
X170950000Y-112390476D01*
X170997619Y-112342857D01*
X171140476Y-112247619D01*
X171330952Y-112200000D01*
X171711905Y-112200000D01*
X171807143Y-112247619D01*
X171854762Y-112295238D01*
X171902381Y-112390476D01*
X171902381Y-112580953D01*
X171854762Y-112676191D01*
X171807143Y-112723810D01*
X171711905Y-112771429D01*
X171473810Y-112771429D01*
X171378571Y-112723810D01*
X171330952Y-112676191D01*
X171283333Y-112580953D01*
X171283333Y-112390476D01*
X171330952Y-112295238D01*
X171378571Y-112247619D01*
X171473810Y-112200000D01*
X171330952Y-113342857D02*
X171283333Y-113247619D01*
X171235714Y-113200000D01*
X171140476Y-113152381D01*
X171092857Y-113152381D01*
X170997619Y-113200000D01*
X170950000Y-113247619D01*
X170902381Y-113342857D01*
X170902381Y-113533334D01*
X170950000Y-113628572D01*
X170997619Y-113676191D01*
X171092857Y-113723810D01*
X171140476Y-113723810D01*
X171235714Y-113676191D01*
X171283333Y-113628572D01*
X171330952Y-113533334D01*
X171330952Y-113342857D01*
X171378571Y-113247619D01*
X171426190Y-113200000D01*
X171521429Y-113152381D01*
X171711905Y-113152381D01*
X171807143Y-113200000D01*
X171854762Y-113247619D01*
X171902381Y-113342857D01*
X171902381Y-113533334D01*
X171854762Y-113628572D01*
X171807143Y-113676191D01*
X171711905Y-113723810D01*
X171521429Y-113723810D01*
X171426190Y-113676191D01*
X171378571Y-113628572D01*
X171330952Y-113533334D01*
X170902381Y-114342857D02*
X170902381Y-114438096D01*
X170950000Y-114533334D01*
X170997619Y-114580953D01*
X171092857Y-114628572D01*
X171283333Y-114676191D01*
X171521429Y-114676191D01*
X171711905Y-114628572D01*
X171807143Y-114580953D01*
X171854762Y-114533334D01*
X171902381Y-114438096D01*
X171902381Y-114342857D01*
X171854762Y-114247619D01*
X171807143Y-114200000D01*
X171711905Y-114152381D01*
X171521429Y-114104762D01*
X171283333Y-114104762D01*
X171092857Y-114152381D01*
X170997619Y-114200000D01*
X170950000Y-114247619D01*
X170902381Y-114342857D01*
X171902381Y-115628572D02*
X171902381Y-115057143D01*
X171902381Y-115342857D02*
X170902381Y-115342857D01*
X171045238Y-115247619D01*
X171140476Y-115152381D01*
X171188095Y-115057143D01*
X170902381Y-115961905D02*
X170902381Y-116580953D01*
X171283333Y-116247619D01*
X171283333Y-116390477D01*
X171330952Y-116485715D01*
X171378571Y-116533334D01*
X171473810Y-116580953D01*
X171711905Y-116580953D01*
X171807143Y-116533334D01*
X171854762Y-116485715D01*
X171902381Y-116390477D01*
X171902381Y-116104762D01*
X171854762Y-116009524D01*
X171807143Y-115961905D01*
X171616667Y-116961905D02*
X171616667Y-117438096D01*
X171902381Y-116866667D02*
X170902381Y-117200000D01*
X171902381Y-117533334D01*
X171902381Y-118628572D02*
X170902381Y-118628572D01*
X171616667Y-118961906D01*
X170902381Y-119295239D01*
X171902381Y-119295239D01*
X171902381Y-119771429D02*
X170902381Y-119771429D01*
X171902381Y-120247619D02*
X170902381Y-120247619D01*
X171902381Y-120819048D01*
X170902381Y-120819048D01*
X171902381Y-121295238D02*
X170902381Y-121295238D01*
X171378571Y-122866667D02*
X171426190Y-123009524D01*
X171473810Y-123057143D01*
X171569048Y-123104762D01*
X171711905Y-123104762D01*
X171807143Y-123057143D01*
X171854762Y-123009524D01*
X171902381Y-122914286D01*
X171902381Y-122533333D01*
X170902381Y-122533333D01*
X170902381Y-122866667D01*
X170950000Y-122961905D01*
X170997619Y-123009524D01*
X171092857Y-123057143D01*
X171188095Y-123057143D01*
X171283333Y-123009524D01*
X171330952Y-122961905D01*
X171378571Y-122866667D01*
X171378571Y-122533333D01*
X170902381Y-123723809D02*
X170902381Y-123914286D01*
X170950000Y-124009524D01*
X171045238Y-124104762D01*
X171235714Y-124152381D01*
X171569048Y-124152381D01*
X171759524Y-124104762D01*
X171854762Y-124009524D01*
X171902381Y-123914286D01*
X171902381Y-123723809D01*
X171854762Y-123628571D01*
X171759524Y-123533333D01*
X171569048Y-123485714D01*
X171235714Y-123485714D01*
X171045238Y-123533333D01*
X170950000Y-123628571D01*
X170902381Y-123723809D01*
X171616667Y-124533333D02*
X171616667Y-125009524D01*
X171902381Y-124438095D02*
X170902381Y-124771428D01*
X171902381Y-125104762D01*
X171902381Y-126009524D02*
X171426190Y-125676190D01*
X171902381Y-125438095D02*
X170902381Y-125438095D01*
X170902381Y-125819048D01*
X170950000Y-125914286D01*
X170997619Y-125961905D01*
X171092857Y-126009524D01*
X171235714Y-126009524D01*
X171330952Y-125961905D01*
X171378571Y-125914286D01*
X171426190Y-125819048D01*
X171426190Y-125438095D01*
X171902381Y-126438095D02*
X170902381Y-126438095D01*
X170902381Y-126676190D01*
X170950000Y-126819048D01*
X171045238Y-126914286D01*
X171140476Y-126961905D01*
X171330952Y-127009524D01*
X171473810Y-127009524D01*
X171664286Y-126961905D01*
X171759524Y-126914286D01*
X171854762Y-126819048D01*
X171902381Y-126676190D01*
X171902381Y-126438095D01*
D10*
X163600000Y-108250000D02*
X163600000Y-133250000D01*
X168900000Y-108250000D02*
X168900000Y-133250000D01*
X191600000Y-108250000D02*
X191600000Y-133250000D01*
X196800000Y-108250000D02*
X196800000Y-133250000D01*
M02*
