G04 #@! TF.FileFunction,Legend,Top*
%FSLAX46Y46*%
G04 Gerber Fmt 4.6, Leading zero omitted, Abs format (unit mm)*
G04 Created by KiCad (PCBNEW (2015-08-16 BZR 6096)-product) date 16/08/2015 20:52:47*
%MOMM*%
G01*
G04 APERTURE LIST*
%ADD10C,0.200000*%
%ADD11C,0.250000*%
%ADD12C,0.300000*%
%ADD13C,0.150000*%
%ADD14C,0.254000*%
%ADD15C,0.203200*%
G04 APERTURE END LIST*
D10*
X173500000Y-133000000D02*
X173500000Y-134000000D01*
X169500000Y-133000000D02*
X174750000Y-133000000D01*
X175250000Y-131000000D02*
X171750000Y-131000000D01*
X176000000Y-133750000D02*
X175250000Y-131000000D01*
D11*
X169392857Y-113627381D02*
X169392857Y-112627381D01*
X169821428Y-112722619D02*
X169869047Y-112675000D01*
X169964285Y-112627381D01*
X170202381Y-112627381D01*
X170297619Y-112675000D01*
X170345238Y-112722619D01*
X170392857Y-112817857D01*
X170392857Y-112913095D01*
X170345238Y-113055952D01*
X169773809Y-113627381D01*
X170392857Y-113627381D01*
X171392857Y-113532143D02*
X171345238Y-113579762D01*
X171202381Y-113627381D01*
X171107143Y-113627381D01*
X170964285Y-113579762D01*
X170869047Y-113484524D01*
X170821428Y-113389286D01*
X170773809Y-113198810D01*
X170773809Y-113055952D01*
X170821428Y-112865476D01*
X170869047Y-112770238D01*
X170964285Y-112675000D01*
X171107143Y-112627381D01*
X171202381Y-112627381D01*
X171345238Y-112675000D01*
X171392857Y-112722619D01*
X172583333Y-113103571D02*
X172916667Y-113103571D01*
X173059524Y-113627381D02*
X172583333Y-113627381D01*
X172583333Y-112627381D01*
X173059524Y-112627381D01*
X173488095Y-113103571D02*
X173821429Y-113103571D01*
X173964286Y-113627381D02*
X173488095Y-113627381D01*
X173488095Y-112627381D01*
X173964286Y-112627381D01*
X174392857Y-113627381D02*
X174392857Y-112627381D01*
X174773810Y-112627381D01*
X174869048Y-112675000D01*
X174916667Y-112722619D01*
X174964286Y-112817857D01*
X174964286Y-112960714D01*
X174916667Y-113055952D01*
X174869048Y-113103571D01*
X174773810Y-113151190D01*
X174392857Y-113151190D01*
X175964286Y-113627381D02*
X175630952Y-113151190D01*
X175392857Y-113627381D02*
X175392857Y-112627381D01*
X175773810Y-112627381D01*
X175869048Y-112675000D01*
X175916667Y-112722619D01*
X175964286Y-112817857D01*
X175964286Y-112960714D01*
X175916667Y-113055952D01*
X175869048Y-113103571D01*
X175773810Y-113151190D01*
X175392857Y-113151190D01*
X176583333Y-112627381D02*
X176773810Y-112627381D01*
X176869048Y-112675000D01*
X176964286Y-112770238D01*
X177011905Y-112960714D01*
X177011905Y-113294048D01*
X176964286Y-113484524D01*
X176869048Y-113579762D01*
X176773810Y-113627381D01*
X176583333Y-113627381D01*
X176488095Y-113579762D01*
X176392857Y-113484524D01*
X176345238Y-113294048D01*
X176345238Y-112960714D01*
X176392857Y-112770238D01*
X176488095Y-112675000D01*
X176583333Y-112627381D01*
X177440476Y-113627381D02*
X177440476Y-112627381D01*
X177773810Y-113341667D01*
X178107143Y-112627381D01*
X178107143Y-113627381D01*
X171321429Y-114753571D02*
X171464286Y-114801190D01*
X171511905Y-114848810D01*
X171559524Y-114944048D01*
X171559524Y-115086905D01*
X171511905Y-115182143D01*
X171464286Y-115229762D01*
X171369048Y-115277381D01*
X170988095Y-115277381D01*
X170988095Y-114277381D01*
X171321429Y-114277381D01*
X171416667Y-114325000D01*
X171464286Y-114372619D01*
X171511905Y-114467857D01*
X171511905Y-114563095D01*
X171464286Y-114658333D01*
X171416667Y-114705952D01*
X171321429Y-114753571D01*
X170988095Y-114753571D01*
X171988095Y-114277381D02*
X171988095Y-115086905D01*
X172035714Y-115182143D01*
X172083333Y-115229762D01*
X172178571Y-115277381D01*
X172369048Y-115277381D01*
X172464286Y-115229762D01*
X172511905Y-115182143D01*
X172559524Y-115086905D01*
X172559524Y-114277381D01*
X173607143Y-115277381D02*
X173273809Y-114801190D01*
X173035714Y-115277381D02*
X173035714Y-114277381D01*
X173416667Y-114277381D01*
X173511905Y-114325000D01*
X173559524Y-114372619D01*
X173607143Y-114467857D01*
X173607143Y-114610714D01*
X173559524Y-114705952D01*
X173511905Y-114753571D01*
X173416667Y-114801190D01*
X173035714Y-114801190D01*
X174035714Y-115277381D02*
X174035714Y-114277381D01*
X174607143Y-115277381D01*
X174607143Y-114277381D01*
X175083333Y-114753571D02*
X175416667Y-114753571D01*
X175559524Y-115277381D02*
X175083333Y-115277381D01*
X175083333Y-114277381D01*
X175559524Y-114277381D01*
X176559524Y-115277381D02*
X176226190Y-114801190D01*
X175988095Y-115277381D02*
X175988095Y-114277381D01*
X176369048Y-114277381D01*
X176464286Y-114325000D01*
X176511905Y-114372619D01*
X176559524Y-114467857D01*
X176559524Y-114610714D01*
X176511905Y-114705952D01*
X176464286Y-114753571D01*
X176369048Y-114801190D01*
X175988095Y-114801190D01*
D10*
X170061905Y-131361905D02*
X169795238Y-130980952D01*
X169604762Y-131361905D02*
X169604762Y-130561905D01*
X169909524Y-130561905D01*
X169985715Y-130600000D01*
X170023810Y-130638095D01*
X170061905Y-130714286D01*
X170061905Y-130828571D01*
X170023810Y-130904762D01*
X169985715Y-130942857D01*
X169909524Y-130980952D01*
X169604762Y-130980952D01*
X170366667Y-131323810D02*
X170480953Y-131361905D01*
X170671429Y-131361905D01*
X170747619Y-131323810D01*
X170785715Y-131285714D01*
X170823810Y-131209524D01*
X170823810Y-131133333D01*
X170785715Y-131057143D01*
X170747619Y-131019048D01*
X170671429Y-130980952D01*
X170519048Y-130942857D01*
X170442857Y-130904762D01*
X170404762Y-130866667D01*
X170366667Y-130790476D01*
X170366667Y-130714286D01*
X170404762Y-130638095D01*
X170442857Y-130600000D01*
X170519048Y-130561905D01*
X170709524Y-130561905D01*
X170823810Y-130600000D01*
X171052381Y-130561905D02*
X171509524Y-130561905D01*
X171280953Y-131361905D02*
X171280953Y-130561905D01*
X177797619Y-133973810D02*
X177911905Y-134011905D01*
X178102381Y-134011905D01*
X178178571Y-133973810D01*
X178216667Y-133935714D01*
X178254762Y-133859524D01*
X178254762Y-133783333D01*
X178216667Y-133707143D01*
X178178571Y-133669048D01*
X178102381Y-133630952D01*
X177950000Y-133592857D01*
X177873809Y-133554762D01*
X177835714Y-133516667D01*
X177797619Y-133440476D01*
X177797619Y-133364286D01*
X177835714Y-133288095D01*
X177873809Y-133250000D01*
X177950000Y-133211905D01*
X178140476Y-133211905D01*
X178254762Y-133250000D01*
X179054762Y-133935714D02*
X179016667Y-133973810D01*
X178902381Y-134011905D01*
X178826191Y-134011905D01*
X178711905Y-133973810D01*
X178635714Y-133897619D01*
X178597619Y-133821429D01*
X178559524Y-133669048D01*
X178559524Y-133554762D01*
X178597619Y-133402381D01*
X178635714Y-133326190D01*
X178711905Y-133250000D01*
X178826191Y-133211905D01*
X178902381Y-133211905D01*
X179016667Y-133250000D01*
X179054762Y-133288095D01*
X179778572Y-134011905D02*
X179397619Y-134011905D01*
X179397619Y-133211905D01*
X180278572Y-133973810D02*
X180392858Y-134011905D01*
X180583334Y-134011905D01*
X180659524Y-133973810D01*
X180697620Y-133935714D01*
X180735715Y-133859524D01*
X180735715Y-133783333D01*
X180697620Y-133707143D01*
X180659524Y-133669048D01*
X180583334Y-133630952D01*
X180430953Y-133592857D01*
X180354762Y-133554762D01*
X180316667Y-133516667D01*
X180278572Y-133440476D01*
X180278572Y-133364286D01*
X180316667Y-133288095D01*
X180354762Y-133250000D01*
X180430953Y-133211905D01*
X180621429Y-133211905D01*
X180735715Y-133250000D01*
X181078572Y-134011905D02*
X181078572Y-133211905D01*
X181269048Y-133211905D01*
X181383334Y-133250000D01*
X181459525Y-133326190D01*
X181497620Y-133402381D01*
X181535715Y-133554762D01*
X181535715Y-133669048D01*
X181497620Y-133821429D01*
X181459525Y-133897619D01*
X181383334Y-133973810D01*
X181269048Y-134011905D01*
X181078572Y-134011905D01*
X181840477Y-133783333D02*
X182221429Y-133783333D01*
X181764286Y-134011905D02*
X182030953Y-133211905D01*
X182297620Y-134011905D01*
X169409523Y-131811905D02*
X169866666Y-131811905D01*
X169638095Y-132611905D02*
X169638095Y-131811905D01*
X170590476Y-132611905D02*
X170323809Y-132230952D01*
X170133333Y-132611905D02*
X170133333Y-131811905D01*
X170438095Y-131811905D01*
X170514286Y-131850000D01*
X170552381Y-131888095D01*
X170590476Y-131964286D01*
X170590476Y-132078571D01*
X170552381Y-132154762D01*
X170514286Y-132192857D01*
X170438095Y-132230952D01*
X170133333Y-132230952D01*
X171352381Y-131850000D02*
X171276190Y-131811905D01*
X171161905Y-131811905D01*
X171047619Y-131850000D01*
X170971428Y-131926190D01*
X170933333Y-132002381D01*
X170895238Y-132154762D01*
X170895238Y-132269048D01*
X170933333Y-132421429D01*
X170971428Y-132497619D01*
X171047619Y-132573810D01*
X171161905Y-132611905D01*
X171238095Y-132611905D01*
X171352381Y-132573810D01*
X171390476Y-132535714D01*
X171390476Y-132269048D01*
X171238095Y-132269048D01*
X172342857Y-132611905D02*
X172342857Y-131811905D01*
X172647619Y-131811905D01*
X172723810Y-131850000D01*
X172761905Y-131888095D01*
X172800000Y-131964286D01*
X172800000Y-132078571D01*
X172761905Y-132154762D01*
X172723810Y-132192857D01*
X172647619Y-132230952D01*
X172342857Y-132230952D01*
X173066667Y-131811905D02*
X173257143Y-132611905D01*
X173409524Y-132040476D01*
X173561905Y-132611905D01*
X173752381Y-131811905D01*
X174514286Y-132611905D02*
X174247619Y-132230952D01*
X174057143Y-132611905D02*
X174057143Y-131811905D01*
X174361905Y-131811905D01*
X174438096Y-131850000D01*
X174476191Y-131888095D01*
X174514286Y-131964286D01*
X174514286Y-132078571D01*
X174476191Y-132154762D01*
X174438096Y-132192857D01*
X174361905Y-132230952D01*
X174057143Y-132230952D01*
X183140477Y-133250000D02*
X183064286Y-133211905D01*
X182950001Y-133211905D01*
X182835715Y-133250000D01*
X182759524Y-133326190D01*
X182721429Y-133402381D01*
X182683334Y-133554762D01*
X182683334Y-133669048D01*
X182721429Y-133821429D01*
X182759524Y-133897619D01*
X182835715Y-133973810D01*
X182950001Y-134011905D01*
X183026191Y-134011905D01*
X183140477Y-133973810D01*
X183178572Y-133935714D01*
X183178572Y-133669048D01*
X183026191Y-133669048D01*
X183521429Y-134011905D02*
X183521429Y-133211905D01*
X183978572Y-134011905D01*
X183978572Y-133211905D01*
X184359524Y-134011905D02*
X184359524Y-133211905D01*
X184550000Y-133211905D01*
X184664286Y-133250000D01*
X184740477Y-133326190D01*
X184778572Y-133402381D01*
X184816667Y-133554762D01*
X184816667Y-133669048D01*
X184778572Y-133821429D01*
X184740477Y-133897619D01*
X184664286Y-133973810D01*
X184550000Y-134011905D01*
X184359524Y-134011905D01*
D12*
X170857143Y-108678571D02*
X170857143Y-109892857D01*
X170928571Y-110035714D01*
X171000000Y-110107143D01*
X171142857Y-110178571D01*
X171428571Y-110178571D01*
X171571429Y-110107143D01*
X171642857Y-110035714D01*
X171714286Y-109892857D01*
X171714286Y-108678571D01*
X172357143Y-110107143D02*
X172571429Y-110178571D01*
X172928572Y-110178571D01*
X173071429Y-110107143D01*
X173142858Y-110035714D01*
X173214286Y-109892857D01*
X173214286Y-109750000D01*
X173142858Y-109607143D01*
X173071429Y-109535714D01*
X172928572Y-109464286D01*
X172642858Y-109392857D01*
X172500000Y-109321429D01*
X172428572Y-109250000D01*
X172357143Y-109107143D01*
X172357143Y-108964286D01*
X172428572Y-108821429D01*
X172500000Y-108750000D01*
X172642858Y-108678571D01*
X173000000Y-108678571D01*
X173214286Y-108750000D01*
X174357143Y-109392857D02*
X174571429Y-109464286D01*
X174642857Y-109535714D01*
X174714286Y-109678571D01*
X174714286Y-109892857D01*
X174642857Y-110035714D01*
X174571429Y-110107143D01*
X174428571Y-110178571D01*
X173857143Y-110178571D01*
X173857143Y-108678571D01*
X174357143Y-108678571D01*
X174500000Y-108750000D01*
X174571429Y-108821429D01*
X174642857Y-108964286D01*
X174642857Y-109107143D01*
X174571429Y-109250000D01*
X174500000Y-109321429D01*
X174357143Y-109392857D01*
X173857143Y-109392857D01*
D10*
X175500000Y-108500000D02*
X175250000Y-108000000D01*
X175000000Y-108500000D02*
X175500000Y-108500000D01*
X175250000Y-108000000D02*
X175000000Y-108500000D01*
X175250000Y-110250000D02*
X175250000Y-108000000D01*
D13*
X172360000Y-139310000D02*
X185060000Y-139310000D01*
X184044000Y-137024000D02*
X184044000Y-136643000D01*
X183536000Y-137024000D02*
X183536000Y-136643000D01*
X181504000Y-137024000D02*
X181504000Y-136643000D01*
X180996000Y-137024000D02*
X180996000Y-136643000D01*
X178964000Y-137024000D02*
X178964000Y-136643000D01*
X178456000Y-137024000D02*
X178456000Y-136643000D01*
X176424000Y-137024000D02*
X176424000Y-136643000D01*
X175916000Y-137024000D02*
X175916000Y-136643000D01*
X173376000Y-137024000D02*
X173376000Y-136643000D01*
X173884000Y-137024000D02*
X173884000Y-136643000D01*
X182520000Y-137024000D02*
X182520000Y-139310000D01*
X185060000Y-137024000D02*
X182520000Y-137024000D01*
X185060000Y-137024000D02*
X185060000Y-139310000D01*
X179980000Y-137024000D02*
X179980000Y-139310000D01*
X179980000Y-137024000D02*
X177440000Y-137024000D01*
X182520000Y-137024000D02*
X179980000Y-137024000D01*
X174900000Y-137024000D02*
X174900000Y-139310000D01*
X174900000Y-137024000D02*
X172360000Y-137024000D01*
X172360000Y-137024000D02*
X172360000Y-139310000D01*
X177440000Y-137024000D02*
X174900000Y-137024000D01*
X177440000Y-137024000D02*
X177440000Y-139310000D01*
D10*
X185997746Y-107856521D02*
X185997746Y-128176521D01*
X181425746Y-128176521D02*
X181425746Y-107856521D01*
X185997746Y-128176521D02*
X181425746Y-128176521D01*
D13*
X182441746Y-128176521D02*
X182441746Y-126906521D01*
X182441746Y-126906521D02*
X184981746Y-126906521D01*
X184981746Y-126906521D02*
X184981746Y-128176521D01*
D10*
X181425746Y-107856521D02*
X185997746Y-107856521D01*
D13*
X190135000Y-134103000D02*
X189754000Y-133976000D01*
X189754000Y-133976000D02*
X189373000Y-133976000D01*
X189373000Y-133976000D02*
X188865000Y-134103000D01*
X190135000Y-136897000D02*
X189754000Y-137024000D01*
X189754000Y-137024000D02*
X189373000Y-137024000D01*
X189373000Y-137024000D02*
X188865000Y-136897000D01*
X177000000Y-127750000D02*
X180000000Y-127750000D01*
X180000000Y-130250000D02*
X177000000Y-130250000D01*
D14*
X174500000Y-127349000D02*
X174500000Y-129000000D01*
X174500000Y-123031000D02*
X174500000Y-121380000D01*
X175389000Y-123031000D02*
X173611000Y-123031000D01*
X173611000Y-123031000D02*
X173611000Y-127349000D01*
X173611000Y-127349000D02*
X175389000Y-127349000D01*
X175389000Y-127349000D02*
X175389000Y-123031000D01*
X183219000Y-132000000D02*
X184870000Y-132000000D01*
X178901000Y-132000000D02*
X177250000Y-132000000D01*
X178901000Y-131111000D02*
X178901000Y-132889000D01*
X178901000Y-132889000D02*
X183219000Y-132889000D01*
X183219000Y-132889000D02*
X183219000Y-131111000D01*
X183219000Y-131111000D02*
X178901000Y-131111000D01*
X190250000Y-112091000D02*
X190250000Y-110440000D01*
X190250000Y-116409000D02*
X190250000Y-118060000D01*
X189361000Y-116409000D02*
X191139000Y-116409000D01*
X191139000Y-116409000D02*
X191139000Y-112091000D01*
X191139000Y-112091000D02*
X189361000Y-112091000D01*
X189361000Y-112091000D02*
X189361000Y-116409000D01*
D10*
X185390476Y-128561905D02*
X185390476Y-129209524D01*
X185428571Y-129285714D01*
X185466667Y-129323810D01*
X185542857Y-129361905D01*
X185695238Y-129361905D01*
X185771429Y-129323810D01*
X185809524Y-129285714D01*
X185847619Y-129209524D01*
X185847619Y-128561905D01*
X186647619Y-129361905D02*
X186190476Y-129361905D01*
X186419047Y-129361905D02*
X186419047Y-128561905D01*
X186342857Y-128676190D01*
X186266666Y-128752381D01*
X186190476Y-128790476D01*
X189909524Y-138111905D02*
X189909524Y-137311905D01*
X190100000Y-137311905D01*
X190214286Y-137350000D01*
X190290477Y-137426190D01*
X190328572Y-137502381D01*
X190366667Y-137654762D01*
X190366667Y-137769048D01*
X190328572Y-137921429D01*
X190290477Y-137997619D01*
X190214286Y-138073810D01*
X190100000Y-138111905D01*
X189909524Y-138111905D01*
X191128572Y-138111905D02*
X190671429Y-138111905D01*
X190900000Y-138111905D02*
X190900000Y-137311905D01*
X190823810Y-137426190D01*
X190747619Y-137502381D01*
X190671429Y-137540476D01*
D13*
X191405048Y-137095429D02*
X192166953Y-137095429D01*
X191786001Y-137476381D02*
X191786001Y-136714476D01*
D10*
X177866667Y-127285714D02*
X177828572Y-127323810D01*
X177714286Y-127361905D01*
X177638096Y-127361905D01*
X177523810Y-127323810D01*
X177447619Y-127247619D01*
X177409524Y-127171429D01*
X177371429Y-127019048D01*
X177371429Y-126904762D01*
X177409524Y-126752381D01*
X177447619Y-126676190D01*
X177523810Y-126600000D01*
X177638096Y-126561905D01*
X177714286Y-126561905D01*
X177828572Y-126600000D01*
X177866667Y-126638095D01*
X178628572Y-127361905D02*
X178171429Y-127361905D01*
X178400000Y-127361905D02*
X178400000Y-126561905D01*
X178323810Y-126676190D01*
X178247619Y-126752381D01*
X178171429Y-126790476D01*
X176366667Y-123801905D02*
X176100000Y-123420952D01*
X175909524Y-123801905D02*
X175909524Y-123001905D01*
X176214286Y-123001905D01*
X176290477Y-123040000D01*
X176328572Y-123078095D01*
X176366667Y-123154286D01*
X176366667Y-123268571D01*
X176328572Y-123344762D01*
X176290477Y-123382857D01*
X176214286Y-123420952D01*
X175909524Y-123420952D01*
X177128572Y-123801905D02*
X176671429Y-123801905D01*
X176900000Y-123801905D02*
X176900000Y-123001905D01*
X176823810Y-123116190D01*
X176747619Y-123192381D01*
X176671429Y-123230476D01*
D15*
D10*
X181616667Y-130611905D02*
X181350000Y-130230952D01*
X181159524Y-130611905D02*
X181159524Y-129811905D01*
X181464286Y-129811905D01*
X181540477Y-129850000D01*
X181578572Y-129888095D01*
X181616667Y-129964286D01*
X181616667Y-130078571D01*
X181578572Y-130154762D01*
X181540477Y-130192857D01*
X181464286Y-130230952D01*
X181159524Y-130230952D01*
X181921429Y-129888095D02*
X181959524Y-129850000D01*
X182035715Y-129811905D01*
X182226191Y-129811905D01*
X182302381Y-129850000D01*
X182340477Y-129888095D01*
X182378572Y-129964286D01*
X182378572Y-130040476D01*
X182340477Y-130154762D01*
X181883334Y-130611905D01*
X182378572Y-130611905D01*
D15*
D10*
X190066667Y-108961905D02*
X189800000Y-108580952D01*
X189609524Y-108961905D02*
X189609524Y-108161905D01*
X189914286Y-108161905D01*
X189990477Y-108200000D01*
X190028572Y-108238095D01*
X190066667Y-108314286D01*
X190066667Y-108428571D01*
X190028572Y-108504762D01*
X189990477Y-108542857D01*
X189914286Y-108580952D01*
X189609524Y-108580952D01*
X190333334Y-108161905D02*
X190828572Y-108161905D01*
X190561905Y-108466667D01*
X190676191Y-108466667D01*
X190752381Y-108504762D01*
X190790477Y-108542857D01*
X190828572Y-108619048D01*
X190828572Y-108809524D01*
X190790477Y-108885714D01*
X190752381Y-108923810D01*
X190676191Y-108961905D01*
X190447619Y-108961905D01*
X190371429Y-108923810D01*
X190333334Y-108885714D01*
D15*
M02*
