M48
;DRILL file {KiCad (2015-08-16 BZR 6096)-product} date 16/08/2015 20:52:42
;FORMAT={-:-/ absolute / metric / decimal}
FMAT,2
METRIC,TZ
T1C0.800
T2C0.800
T3C1.000
%
G90
G05
M71
T1
X174.5Y-121.38
X174.5Y-129.
X177.25Y-129.
X177.25Y-132.
X179.902Y-110.397
X179.902Y-112.937
X179.902Y-115.477
X179.902Y-118.017
X179.902Y-120.557
X179.902Y-123.097
X179.902Y-125.637
X184.87Y-132.
X187.522Y-110.397
X187.522Y-112.937
X187.522Y-115.477
X187.522Y-118.017
X187.522Y-120.557
X187.522Y-123.097
X187.522Y-125.637
X188.23Y-135.5
X190.25Y-110.44
X190.25Y-118.06
X190.77Y-135.5
T2
X179.75Y-129.
T3
X165.Y-109.25
X165.Y-111.79
X165.Y-114.33
X165.Y-116.87
X165.Y-119.41
X165.Y-121.95
X165.Y-124.49
X165.Y-127.03
X165.Y-129.57
X165.Y-132.11
X167.54Y-109.25
X167.54Y-111.79
X167.54Y-114.33
X167.54Y-116.87
X167.54Y-119.41
X167.54Y-121.95
X167.54Y-124.49
X167.54Y-127.03
X167.54Y-129.57
X167.54Y-132.11
X173.63Y-135.5
X176.17Y-135.5
X178.71Y-135.5
X181.25Y-135.5
X183.79Y-135.5
X192.94Y-109.25
X192.94Y-111.79
X192.94Y-114.33
X192.94Y-116.87
X192.94Y-119.41
X192.94Y-121.95
X192.94Y-124.49
X192.94Y-127.03
X192.94Y-129.57
X192.94Y-132.11
X195.48Y-109.25
X195.48Y-111.79
X195.48Y-114.33
X195.48Y-116.87
X195.48Y-119.41
X195.48Y-121.95
X195.48Y-124.49
X195.48Y-127.03
X195.48Y-129.57
X195.48Y-132.11
T0
M30
