G04 #@! TF.FileFunction,Copper,L2,Bot,Signal*
%FSLAX46Y46*%
G04 Gerber Fmt 4.6, Leading zero omitted, Abs format (unit mm)*
G04 Created by KiCad (PCBNEW (2015-08-16 BZR 6096)-product) date 16/08/2015 20:52:47*
%MOMM*%
G01*
G04 APERTURE LIST*
%ADD10C,0.200000*%
%ADD11O,1.727200X2.032000*%
%ADD12R,1.727200X2.032000*%
%ADD13R,1.800000X1.800000*%
%ADD14C,1.800000*%
%ADD15O,1.800000X1.600000*%
%ADD16O,1.600000X1.800000*%
%ADD17R,2.286000X1.574800*%
%ADD18O,2.286000X1.574800*%
%ADD19C,1.600000*%
%ADD20C,1.700000*%
%ADD21C,0.600000*%
%ADD22C,0.500000*%
%ADD23C,0.300000*%
%ADD24C,0.250000*%
%ADD25C,0.350000*%
%ADD26C,0.400000*%
G04 APERTURE END LIST*
D10*
D11*
X183790000Y-135500000D03*
X181250000Y-135500000D03*
X178710000Y-135500000D03*
X176170000Y-135500000D03*
D12*
X173630000Y-135500000D03*
D13*
X165000000Y-109250000D03*
D14*
X167540000Y-109250000D03*
X165000000Y-111790000D03*
X167540000Y-111790000D03*
X165000000Y-114330000D03*
X167540000Y-114330000D03*
X165000000Y-116870000D03*
X167540000Y-116870000D03*
X165000000Y-119410000D03*
X167540000Y-119410000D03*
X165000000Y-121950000D03*
D15*
X167540000Y-121950000D03*
D14*
X165000000Y-124490000D03*
D15*
X167540000Y-124490000D03*
D14*
X165000000Y-127030000D03*
X167540000Y-127030000D03*
X165000000Y-129570000D03*
X167540000Y-129570000D03*
X165000000Y-132110000D03*
X167540000Y-132110000D03*
X195480000Y-132110000D03*
X192940000Y-132110000D03*
X195480000Y-129570000D03*
X192940000Y-129570000D03*
X195480000Y-127030000D03*
X192940000Y-127030000D03*
D16*
X195480000Y-124490000D03*
D15*
X192940000Y-124490000D03*
D14*
X195480000Y-121950000D03*
D15*
X192940000Y-121950000D03*
D14*
X195480000Y-119410000D03*
X192940000Y-119410000D03*
X195480000Y-116870000D03*
X192940000Y-116870000D03*
X195480000Y-114330000D03*
X192940000Y-114330000D03*
X195480000Y-111790000D03*
X192940000Y-111790000D03*
X195480000Y-109250000D03*
X192940000Y-109250000D03*
D17*
X187521746Y-125636521D03*
D18*
X187521746Y-123096521D03*
X187521746Y-120556521D03*
X187521746Y-118016521D03*
X187521746Y-115476521D03*
X187521746Y-112936521D03*
X187521746Y-110396521D03*
X179901746Y-110396521D03*
X179901746Y-112936521D03*
X179901746Y-115476521D03*
X179901746Y-118016521D03*
X179901746Y-120556521D03*
X179901746Y-123096521D03*
X179901746Y-125636521D03*
D13*
X190770000Y-135500000D03*
D14*
X188230000Y-135500000D03*
D19*
X177250000Y-129000000D03*
D20*
X179750000Y-129000000D03*
D14*
X174500000Y-121380000D03*
X174500000Y-129000000D03*
X177250000Y-132000000D03*
X184870000Y-132000000D03*
X190250000Y-118060000D03*
X190250000Y-110440000D03*
D21*
X174750000Y-132000000D02*
X173630000Y-133120000D01*
X173630000Y-133120000D02*
X173630000Y-135500000D01*
X177250000Y-132000000D02*
X174750000Y-132000000D01*
X177250000Y-126500000D02*
X178113479Y-125636521D01*
X178113479Y-125636521D02*
X179901746Y-125636521D01*
X177250000Y-129000000D02*
X177250000Y-126500000D01*
X177250000Y-129000000D02*
X177250000Y-132000000D01*
D22*
X179901744Y-125636521D02*
X179546145Y-125636520D01*
X179961744Y-125696521D02*
X179901744Y-125636521D01*
D21*
X187521746Y-110396521D02*
X190206521Y-110396521D01*
X190206521Y-110396521D02*
X190250000Y-110440000D01*
D22*
X187166146Y-110396521D02*
X187521745Y-110396522D01*
X184870000Y-132000000D02*
X185000000Y-132000000D01*
X185000000Y-132000000D02*
X186750000Y-133750000D01*
X186750000Y-133750000D02*
X190420000Y-133750000D01*
X190420000Y-133750000D02*
X190770000Y-134100000D01*
X190770000Y-134100000D02*
X190770000Y-135500000D01*
D21*
X184870000Y-132000000D02*
X184520000Y-132000000D01*
D22*
X188230000Y-135500000D02*
X186500000Y-135500000D01*
X186500000Y-135500000D02*
X186050010Y-135050010D01*
X186050010Y-135050010D02*
X186050010Y-134300010D01*
D23*
X187166146Y-123096521D02*
X187521746Y-123096521D01*
X186050010Y-134300010D02*
X185250000Y-133500000D01*
X185250000Y-133500000D02*
X183520000Y-133500000D01*
X183520000Y-133500000D02*
X182000000Y-131980000D01*
X182000000Y-131980000D02*
X182000000Y-124639998D01*
X182000000Y-124639998D02*
X184630877Y-122009121D01*
X184630877Y-122009121D02*
X186078746Y-122009121D01*
X186078746Y-122009121D02*
X187166146Y-123096521D01*
D22*
X176170000Y-135500000D02*
X176170000Y-137080000D01*
D23*
X176170000Y-137080000D02*
X176000000Y-137250000D01*
X176000000Y-137250000D02*
X172500000Y-137250000D01*
X172500000Y-137250000D02*
X172000000Y-136750000D01*
X172000000Y-136750000D02*
X172000000Y-131500000D01*
X172000000Y-131500000D02*
X174500000Y-129000000D01*
X176562390Y-137800010D02*
X177591536Y-136770864D01*
D22*
X178710000Y-135652400D02*
X177591536Y-136770864D01*
X178710000Y-135500000D02*
X178710000Y-135652400D01*
D23*
X172272179Y-137800010D02*
X176562390Y-137800010D01*
X171250000Y-136777831D02*
X172272179Y-137800010D01*
X174689477Y-118016521D02*
X171250000Y-121455998D01*
X179901746Y-118016521D02*
X174689477Y-118016521D01*
X171250000Y-121455998D02*
X171250000Y-136777831D01*
X178552380Y-138350020D02*
X180013192Y-136889208D01*
D22*
X181250000Y-135500000D02*
X181250000Y-135652400D01*
X181250000Y-135652400D02*
X180013192Y-136889208D01*
D23*
X172044358Y-138350020D02*
X178552380Y-138350020D01*
X178458746Y-114023921D02*
X177781739Y-114023921D01*
X179546146Y-112936521D02*
X178458746Y-114023921D01*
X179901746Y-112936521D02*
X179546146Y-112936521D01*
X170699990Y-121105670D02*
X170699990Y-137005652D01*
X170699990Y-137005652D02*
X172044358Y-138350020D01*
X177781739Y-114023921D02*
X170699990Y-121105670D01*
D22*
X195480000Y-121950000D02*
X194304990Y-123125010D01*
D24*
X190250000Y-121690000D02*
X190250000Y-123561715D01*
X190250000Y-123561715D02*
X192353295Y-125665010D01*
X192353295Y-125665010D02*
X193734990Y-125665010D01*
X193734990Y-125665010D02*
X194304990Y-125095010D01*
X194304990Y-125095010D02*
X194304990Y-123125010D01*
D23*
X187521746Y-118016521D02*
X187877346Y-118016521D01*
X187877346Y-118016521D02*
X190250000Y-120389175D01*
X190250000Y-120389175D02*
X190250000Y-120417208D01*
X190250000Y-120417208D02*
X190250000Y-121690000D01*
X190250000Y-118060000D02*
X190250000Y-119332792D01*
X190250000Y-119332792D02*
X190800010Y-119882802D01*
X190800010Y-119882802D02*
X190800010Y-123227829D01*
X190800010Y-123227829D02*
X191425712Y-123853531D01*
D22*
X192940000Y-124490000D02*
X192062181Y-124490000D01*
X192062181Y-124490000D02*
X191425712Y-123853531D01*
D23*
X179901746Y-123096521D02*
X181344746Y-123096521D01*
X181344746Y-123096521D02*
X185500000Y-118941267D01*
X185500000Y-118941267D02*
X185500000Y-116250000D01*
X185500000Y-116250000D02*
X186273479Y-115476521D01*
X186273479Y-115476521D02*
X187521746Y-115476521D01*
X179901746Y-120556521D02*
X180257346Y-120556521D01*
X180257346Y-120556521D02*
X180313867Y-120500000D01*
X189500000Y-115500000D02*
X190250000Y-116250000D01*
X187900825Y-115500000D02*
X189500000Y-115500000D01*
X190250000Y-116250000D02*
X190250000Y-118060000D01*
D22*
X179941745Y-120516520D02*
X179901744Y-120556520D01*
X187521745Y-115476521D02*
X187521745Y-112936520D01*
X179901744Y-120556520D02*
X179901746Y-123096521D01*
D25*
X179894743Y-122977015D02*
X179894743Y-121195120D01*
D23*
X174500000Y-121380000D02*
X174500000Y-122652792D01*
X174500000Y-122652792D02*
X176247208Y-124400000D01*
X176247208Y-124400000D02*
X181200000Y-124400000D01*
X181200000Y-124400000D02*
X185043479Y-120556521D01*
X185043479Y-120556521D02*
X187521746Y-120556521D01*
D22*
X167540000Y-124490000D02*
X168740000Y-124490000D01*
D23*
X177800010Y-113227821D02*
X169800010Y-121227820D01*
X177800010Y-112142657D02*
X177800010Y-113227821D01*
X179901746Y-110396521D02*
X179546146Y-110396521D01*
X169800010Y-121227820D02*
X169800010Y-123429990D01*
X179546146Y-110396521D02*
X177800010Y-112142657D01*
X169800010Y-123429990D02*
X168740000Y-124490000D01*
D25*
X179546145Y-110396522D02*
X179901744Y-110396520D01*
D23*
X166265000Y-123225000D02*
X165968879Y-123521121D01*
D22*
X165000000Y-124490000D02*
X165968879Y-123521121D01*
D23*
X179901746Y-115476521D02*
X180257346Y-115476521D01*
X180257346Y-115476521D02*
X180280825Y-115500000D01*
X180280825Y-115500000D02*
X181500000Y-115500000D01*
X181500000Y-115500000D02*
X182000000Y-115000000D01*
X182000000Y-115000000D02*
X182000000Y-110250000D01*
X182000000Y-110250000D02*
X180750000Y-109000000D01*
X180750000Y-109000000D02*
X179000000Y-109000000D01*
X179000000Y-109000000D02*
X178096717Y-109903283D01*
X178096717Y-109903283D02*
X178096717Y-110938742D01*
X169250000Y-121000000D02*
X169250000Y-122725000D01*
X169250000Y-122725000D02*
X168750000Y-123225000D01*
X168750000Y-123225000D02*
X166265000Y-123225000D01*
X178096717Y-110938742D02*
X177250000Y-111785459D01*
X177250000Y-111785459D02*
X177250000Y-113000000D01*
X177250000Y-113000000D02*
X169250000Y-121000000D01*
D26*
X180257345Y-115476522D02*
X179901746Y-115476521D01*
D10*
G36*
X196808971Y-108941029D02*
X197286895Y-109656290D01*
X197470000Y-110576821D01*
X197470000Y-136423179D01*
X197286895Y-137343710D01*
X196808971Y-138058971D01*
X196093710Y-138536894D01*
X195173175Y-138720000D01*
X178931934Y-138720000D01*
X180162406Y-137489527D01*
X180254282Y-137471252D01*
X180458669Y-137334685D01*
X180933050Y-136860304D01*
X181250000Y-136923349D01*
X181725905Y-136828686D01*
X182129358Y-136559107D01*
X182398937Y-136155654D01*
X182493600Y-135679749D01*
X182493600Y-135575000D01*
X182546400Y-135575000D01*
X182546400Y-135727400D01*
X182669765Y-136197596D01*
X182963675Y-136584791D01*
X183383386Y-136830038D01*
X183521736Y-136866721D01*
X183715000Y-136798549D01*
X183715000Y-135575000D01*
X183865000Y-135575000D01*
X183865000Y-136798549D01*
X184058264Y-136866721D01*
X184196614Y-136830038D01*
X184616325Y-136584791D01*
X184910235Y-136197596D01*
X185033600Y-135727400D01*
X185033600Y-135575000D01*
X183865000Y-135575000D01*
X183715000Y-135575000D01*
X182546400Y-135575000D01*
X182493600Y-135575000D01*
X182493600Y-135320251D01*
X182484122Y-135272600D01*
X182546400Y-135272600D01*
X182546400Y-135425000D01*
X183715000Y-135425000D01*
X183715000Y-134201451D01*
X183865000Y-134201451D01*
X183865000Y-135425000D01*
X185033600Y-135425000D01*
X185033600Y-135272600D01*
X184910235Y-134802404D01*
X184616325Y-134415209D01*
X184196614Y-134169962D01*
X184058264Y-134133279D01*
X183865000Y-134201451D01*
X183715000Y-134201451D01*
X183521736Y-134133279D01*
X183383386Y-134169962D01*
X182963675Y-134415209D01*
X182669765Y-134802404D01*
X182546400Y-135272600D01*
X182484122Y-135272600D01*
X182398937Y-134844346D01*
X182129358Y-134440893D01*
X181725905Y-134171314D01*
X181250000Y-134076651D01*
X180774095Y-134171314D01*
X180370642Y-134440893D01*
X180101063Y-134844346D01*
X180006400Y-135320251D01*
X180006400Y-135679749D01*
X180060370Y-135951076D01*
X179859718Y-136151728D01*
X179953600Y-135679749D01*
X179953600Y-135320251D01*
X179858937Y-134844346D01*
X179589358Y-134440893D01*
X179185905Y-134171314D01*
X178710000Y-134076651D01*
X178234095Y-134171314D01*
X177830642Y-134440893D01*
X177561063Y-134844346D01*
X177466400Y-135320251D01*
X177466400Y-135679749D01*
X177520370Y-135951076D01*
X177319718Y-136151728D01*
X177413600Y-135679749D01*
X177413600Y-135320251D01*
X177318937Y-134844346D01*
X177049358Y-134440893D01*
X176645905Y-134171314D01*
X176170000Y-134076651D01*
X175694095Y-134171314D01*
X175290642Y-134440893D01*
X175021063Y-134844346D01*
X174926400Y-135320251D01*
X174926400Y-135679749D01*
X175021063Y-136155654D01*
X175290642Y-136559107D01*
X175531435Y-136720000D01*
X174814126Y-136720000D01*
X174850519Y-136666737D01*
X174881044Y-136516000D01*
X174881044Y-134484000D01*
X174854547Y-134343181D01*
X174771323Y-134213847D01*
X174644337Y-134127081D01*
X174493600Y-134096556D01*
X174310000Y-134096556D01*
X174310000Y-133401666D01*
X175031665Y-132680000D01*
X176146008Y-132680000D01*
X176164236Y-132724115D01*
X176523991Y-133084499D01*
X176994275Y-133279778D01*
X177503491Y-133280222D01*
X177974115Y-133085764D01*
X178334499Y-132726009D01*
X178529778Y-132255725D01*
X178530222Y-131746509D01*
X178335764Y-131275885D01*
X177976009Y-130915501D01*
X177930000Y-130896396D01*
X177930000Y-129988504D01*
X178047788Y-129870921D01*
X178985145Y-129870921D01*
X179074856Y-130056853D01*
X179530688Y-130234771D01*
X180019909Y-130224707D01*
X180425144Y-130056853D01*
X180514855Y-129870921D01*
X179750000Y-129106066D01*
X178985145Y-129870921D01*
X178047788Y-129870921D01*
X178249772Y-129669289D01*
X178429795Y-129235746D01*
X178430192Y-128780688D01*
X178515229Y-128780688D01*
X178525293Y-129269909D01*
X178693147Y-129675144D01*
X178879079Y-129764855D01*
X179643934Y-129000000D01*
X179856066Y-129000000D01*
X180620921Y-129764855D01*
X180806853Y-129675144D01*
X180984771Y-129219312D01*
X180974707Y-128730091D01*
X180806853Y-128324856D01*
X180620921Y-128235145D01*
X179856066Y-129000000D01*
X179643934Y-129000000D01*
X178879079Y-128235145D01*
X178693147Y-128324856D01*
X178515229Y-128780688D01*
X178430192Y-128780688D01*
X178430205Y-128766313D01*
X178250939Y-128332457D01*
X178047916Y-128129079D01*
X178985145Y-128129079D01*
X179750000Y-128893934D01*
X180514855Y-128129079D01*
X180425144Y-127943147D01*
X179969312Y-127765229D01*
X179480091Y-127775293D01*
X179074856Y-127943147D01*
X178985145Y-128129079D01*
X178047916Y-128129079D01*
X177930000Y-128010958D01*
X177930000Y-126781666D01*
X178395144Y-126316521D01*
X178593629Y-126316521D01*
X178690833Y-126461997D01*
X179069564Y-126715058D01*
X179516309Y-126803921D01*
X180287183Y-126803921D01*
X180733928Y-126715058D01*
X181112659Y-126461997D01*
X181365720Y-126083266D01*
X181454583Y-125636521D01*
X181365720Y-125189776D01*
X181192143Y-124930000D01*
X181199995Y-124930000D01*
X181200000Y-124930001D01*
X181402822Y-124889656D01*
X181470000Y-124844769D01*
X181470000Y-131979995D01*
X181469999Y-131980000D01*
X181510344Y-132182822D01*
X181625233Y-132354767D01*
X183145231Y-133874764D01*
X183145233Y-133874767D01*
X183317178Y-133989656D01*
X183520000Y-134030001D01*
X183520005Y-134030000D01*
X185030466Y-134030000D01*
X185420010Y-134419544D01*
X185420010Y-135050010D01*
X185467966Y-135291101D01*
X185557435Y-135425000D01*
X185604533Y-135495487D01*
X186054523Y-135945477D01*
X186258909Y-136082044D01*
X186500000Y-136130000D01*
X187105348Y-136130000D01*
X187144236Y-136224115D01*
X187503991Y-136584499D01*
X187974275Y-136779778D01*
X188483491Y-136780222D01*
X188954115Y-136585764D01*
X189314499Y-136226009D01*
X189482556Y-135821283D01*
X189482556Y-136400000D01*
X189509053Y-136540819D01*
X189592277Y-136670153D01*
X189719263Y-136756919D01*
X189870000Y-136787444D01*
X191670000Y-136787444D01*
X191810819Y-136760947D01*
X191940153Y-136677723D01*
X192026919Y-136550737D01*
X192057444Y-136400000D01*
X192057444Y-134600000D01*
X192030947Y-134459181D01*
X191947723Y-134329847D01*
X191820737Y-134243081D01*
X191670000Y-134212556D01*
X191400000Y-134212556D01*
X191400000Y-134100000D01*
X191395356Y-134076651D01*
X191352045Y-133858910D01*
X191215477Y-133654523D01*
X190865477Y-133304523D01*
X190829108Y-133280222D01*
X190661091Y-133167956D01*
X190420000Y-133120000D01*
X187010954Y-133120000D01*
X186148869Y-132257915D01*
X186149778Y-132255725D01*
X186150222Y-131746509D01*
X185955764Y-131275885D01*
X185596009Y-130915501D01*
X185125725Y-130720222D01*
X184616509Y-130719778D01*
X184145885Y-130914236D01*
X183785501Y-131273991D01*
X183590222Y-131744275D01*
X183589778Y-132253491D01*
X183784236Y-132724115D01*
X184029692Y-132970000D01*
X183739533Y-132970000D01*
X182530000Y-131760466D01*
X182530000Y-125806521D01*
X185998746Y-125806521D01*
X185998746Y-126499508D01*
X186056598Y-126639174D01*
X186163494Y-126746070D01*
X186303160Y-126803921D01*
X187351746Y-126803921D01*
X187446746Y-126708921D01*
X187446746Y-125711521D01*
X187596746Y-125711521D01*
X187596746Y-126708921D01*
X187691746Y-126803921D01*
X188740332Y-126803921D01*
X188879998Y-126746070D01*
X188986894Y-126639174D01*
X189044746Y-126499508D01*
X189044746Y-125806521D01*
X188949746Y-125711521D01*
X187596746Y-125711521D01*
X187446746Y-125711521D01*
X186093746Y-125711521D01*
X185998746Y-125806521D01*
X182530000Y-125806521D01*
X182530000Y-124859532D01*
X182615998Y-124773534D01*
X185998746Y-124773534D01*
X185998746Y-125466521D01*
X186093746Y-125561521D01*
X187446746Y-125561521D01*
X187446746Y-124564121D01*
X187596746Y-124564121D01*
X187596746Y-125561521D01*
X188949746Y-125561521D01*
X189044746Y-125466521D01*
X189044746Y-124773534D01*
X188986894Y-124633868D01*
X188879998Y-124526972D01*
X188740332Y-124469121D01*
X187691746Y-124469121D01*
X187596746Y-124564121D01*
X187446746Y-124564121D01*
X187351746Y-124469121D01*
X186303160Y-124469121D01*
X186163494Y-124526972D01*
X186056598Y-124633868D01*
X185998746Y-124773534D01*
X182615998Y-124773534D01*
X184850411Y-122539121D01*
X185859212Y-122539121D01*
X186043188Y-122723096D01*
X185968909Y-123096521D01*
X186057772Y-123543266D01*
X186310833Y-123921997D01*
X186689564Y-124175058D01*
X187136309Y-124263921D01*
X187907183Y-124263921D01*
X188353928Y-124175058D01*
X188732659Y-123921997D01*
X188985720Y-123543266D01*
X189074583Y-123096521D01*
X188985720Y-122649776D01*
X188732659Y-122271045D01*
X188353928Y-122017984D01*
X187907183Y-121929121D01*
X187136309Y-121929121D01*
X186812658Y-121993499D01*
X186453513Y-121634354D01*
X186281568Y-121519465D01*
X186078746Y-121479120D01*
X186078741Y-121479121D01*
X184870413Y-121479121D01*
X185263013Y-121086521D01*
X186113401Y-121086521D01*
X186310833Y-121381997D01*
X186689564Y-121635058D01*
X187136309Y-121723921D01*
X187907183Y-121723921D01*
X188353928Y-121635058D01*
X188732659Y-121381997D01*
X188985720Y-121003266D01*
X189074583Y-120556521D01*
X188985720Y-120109776D01*
X188732659Y-119731045D01*
X188353928Y-119477984D01*
X187907183Y-119389121D01*
X187136309Y-119389121D01*
X186689564Y-119477984D01*
X186310833Y-119731045D01*
X186113401Y-120026521D01*
X185164279Y-120026521D01*
X185874764Y-119316036D01*
X185874767Y-119316034D01*
X185989656Y-119144089D01*
X185992041Y-119132101D01*
X186030001Y-118941267D01*
X186030000Y-118941262D01*
X186030000Y-118323647D01*
X186057772Y-118463266D01*
X186310833Y-118841997D01*
X186689564Y-119095058D01*
X187136309Y-119183921D01*
X187907183Y-119183921D01*
X188230834Y-119119543D01*
X189720000Y-120608708D01*
X189720000Y-121690000D01*
X189745000Y-121815683D01*
X189745000Y-123561715D01*
X189783441Y-123754970D01*
X189892911Y-123918804D01*
X191996206Y-126022099D01*
X192081078Y-126078808D01*
X191855501Y-126303991D01*
X191660222Y-126774275D01*
X191659778Y-127283491D01*
X191854236Y-127754115D01*
X192213991Y-128114499D01*
X192661247Y-128300216D01*
X192215885Y-128484236D01*
X191855501Y-128843991D01*
X191660222Y-129314275D01*
X191659778Y-129823491D01*
X191854236Y-130294115D01*
X192213991Y-130654499D01*
X192661247Y-130840216D01*
X192215885Y-131024236D01*
X191855501Y-131383991D01*
X191660222Y-131854275D01*
X191659778Y-132363491D01*
X191854236Y-132834115D01*
X192213991Y-133194499D01*
X192684275Y-133389778D01*
X193193491Y-133390222D01*
X193664115Y-133195764D01*
X194024499Y-132836009D01*
X194210216Y-132388753D01*
X194394236Y-132834115D01*
X194753991Y-133194499D01*
X195224275Y-133389778D01*
X195733491Y-133390222D01*
X196204115Y-133195764D01*
X196564499Y-132836009D01*
X196759778Y-132365725D01*
X196760222Y-131856509D01*
X196565764Y-131385885D01*
X196206009Y-131025501D01*
X195758753Y-130839784D01*
X196204115Y-130655764D01*
X196564499Y-130296009D01*
X196759778Y-129825725D01*
X196760222Y-129316509D01*
X196565764Y-128845885D01*
X196206009Y-128485501D01*
X195758753Y-128299784D01*
X196204115Y-128115764D01*
X196564499Y-127756009D01*
X196759778Y-127285725D01*
X196760222Y-126776509D01*
X196565764Y-126305885D01*
X196206009Y-125945501D01*
X195735725Y-125750222D01*
X195705633Y-125750196D01*
X195931566Y-125705255D01*
X196314386Y-125449463D01*
X196570178Y-125066643D01*
X196660000Y-124615077D01*
X196660000Y-124364923D01*
X196570178Y-123913357D01*
X196314386Y-123530537D01*
X195931566Y-123274745D01*
X195707620Y-123230199D01*
X195733491Y-123230222D01*
X196204115Y-123035764D01*
X196564499Y-122676009D01*
X196759778Y-122205725D01*
X196760222Y-121696509D01*
X196565764Y-121225885D01*
X196206009Y-120865501D01*
X195758753Y-120679784D01*
X196204115Y-120495764D01*
X196564499Y-120136009D01*
X196759778Y-119665725D01*
X196760222Y-119156509D01*
X196565764Y-118685885D01*
X196206009Y-118325501D01*
X195758753Y-118139784D01*
X196204115Y-117955764D01*
X196564499Y-117596009D01*
X196759778Y-117125725D01*
X196760222Y-116616509D01*
X196565764Y-116145885D01*
X196206009Y-115785501D01*
X195758753Y-115599784D01*
X196204115Y-115415764D01*
X196564499Y-115056009D01*
X196759778Y-114585725D01*
X196760222Y-114076509D01*
X196565764Y-113605885D01*
X196206009Y-113245501D01*
X195758753Y-113059784D01*
X196204115Y-112875764D01*
X196564499Y-112516009D01*
X196759778Y-112045725D01*
X196760222Y-111536509D01*
X196565764Y-111065885D01*
X196206009Y-110705501D01*
X195758753Y-110519784D01*
X196204115Y-110335764D01*
X196564499Y-109976009D01*
X196759778Y-109505725D01*
X196760222Y-108996509D01*
X196709963Y-108874873D01*
X196808971Y-108941029D01*
X196808971Y-108941029D01*
G37*
X196808971Y-108941029D02*
X197286895Y-109656290D01*
X197470000Y-110576821D01*
X197470000Y-136423179D01*
X197286895Y-137343710D01*
X196808971Y-138058971D01*
X196093710Y-138536894D01*
X195173175Y-138720000D01*
X178931934Y-138720000D01*
X180162406Y-137489527D01*
X180254282Y-137471252D01*
X180458669Y-137334685D01*
X180933050Y-136860304D01*
X181250000Y-136923349D01*
X181725905Y-136828686D01*
X182129358Y-136559107D01*
X182398937Y-136155654D01*
X182493600Y-135679749D01*
X182493600Y-135575000D01*
X182546400Y-135575000D01*
X182546400Y-135727400D01*
X182669765Y-136197596D01*
X182963675Y-136584791D01*
X183383386Y-136830038D01*
X183521736Y-136866721D01*
X183715000Y-136798549D01*
X183715000Y-135575000D01*
X183865000Y-135575000D01*
X183865000Y-136798549D01*
X184058264Y-136866721D01*
X184196614Y-136830038D01*
X184616325Y-136584791D01*
X184910235Y-136197596D01*
X185033600Y-135727400D01*
X185033600Y-135575000D01*
X183865000Y-135575000D01*
X183715000Y-135575000D01*
X182546400Y-135575000D01*
X182493600Y-135575000D01*
X182493600Y-135320251D01*
X182484122Y-135272600D01*
X182546400Y-135272600D01*
X182546400Y-135425000D01*
X183715000Y-135425000D01*
X183715000Y-134201451D01*
X183865000Y-134201451D01*
X183865000Y-135425000D01*
X185033600Y-135425000D01*
X185033600Y-135272600D01*
X184910235Y-134802404D01*
X184616325Y-134415209D01*
X184196614Y-134169962D01*
X184058264Y-134133279D01*
X183865000Y-134201451D01*
X183715000Y-134201451D01*
X183521736Y-134133279D01*
X183383386Y-134169962D01*
X182963675Y-134415209D01*
X182669765Y-134802404D01*
X182546400Y-135272600D01*
X182484122Y-135272600D01*
X182398937Y-134844346D01*
X182129358Y-134440893D01*
X181725905Y-134171314D01*
X181250000Y-134076651D01*
X180774095Y-134171314D01*
X180370642Y-134440893D01*
X180101063Y-134844346D01*
X180006400Y-135320251D01*
X180006400Y-135679749D01*
X180060370Y-135951076D01*
X179859718Y-136151728D01*
X179953600Y-135679749D01*
X179953600Y-135320251D01*
X179858937Y-134844346D01*
X179589358Y-134440893D01*
X179185905Y-134171314D01*
X178710000Y-134076651D01*
X178234095Y-134171314D01*
X177830642Y-134440893D01*
X177561063Y-134844346D01*
X177466400Y-135320251D01*
X177466400Y-135679749D01*
X177520370Y-135951076D01*
X177319718Y-136151728D01*
X177413600Y-135679749D01*
X177413600Y-135320251D01*
X177318937Y-134844346D01*
X177049358Y-134440893D01*
X176645905Y-134171314D01*
X176170000Y-134076651D01*
X175694095Y-134171314D01*
X175290642Y-134440893D01*
X175021063Y-134844346D01*
X174926400Y-135320251D01*
X174926400Y-135679749D01*
X175021063Y-136155654D01*
X175290642Y-136559107D01*
X175531435Y-136720000D01*
X174814126Y-136720000D01*
X174850519Y-136666737D01*
X174881044Y-136516000D01*
X174881044Y-134484000D01*
X174854547Y-134343181D01*
X174771323Y-134213847D01*
X174644337Y-134127081D01*
X174493600Y-134096556D01*
X174310000Y-134096556D01*
X174310000Y-133401666D01*
X175031665Y-132680000D01*
X176146008Y-132680000D01*
X176164236Y-132724115D01*
X176523991Y-133084499D01*
X176994275Y-133279778D01*
X177503491Y-133280222D01*
X177974115Y-133085764D01*
X178334499Y-132726009D01*
X178529778Y-132255725D01*
X178530222Y-131746509D01*
X178335764Y-131275885D01*
X177976009Y-130915501D01*
X177930000Y-130896396D01*
X177930000Y-129988504D01*
X178047788Y-129870921D01*
X178985145Y-129870921D01*
X179074856Y-130056853D01*
X179530688Y-130234771D01*
X180019909Y-130224707D01*
X180425144Y-130056853D01*
X180514855Y-129870921D01*
X179750000Y-129106066D01*
X178985145Y-129870921D01*
X178047788Y-129870921D01*
X178249772Y-129669289D01*
X178429795Y-129235746D01*
X178430192Y-128780688D01*
X178515229Y-128780688D01*
X178525293Y-129269909D01*
X178693147Y-129675144D01*
X178879079Y-129764855D01*
X179643934Y-129000000D01*
X179856066Y-129000000D01*
X180620921Y-129764855D01*
X180806853Y-129675144D01*
X180984771Y-129219312D01*
X180974707Y-128730091D01*
X180806853Y-128324856D01*
X180620921Y-128235145D01*
X179856066Y-129000000D01*
X179643934Y-129000000D01*
X178879079Y-128235145D01*
X178693147Y-128324856D01*
X178515229Y-128780688D01*
X178430192Y-128780688D01*
X178430205Y-128766313D01*
X178250939Y-128332457D01*
X178047916Y-128129079D01*
X178985145Y-128129079D01*
X179750000Y-128893934D01*
X180514855Y-128129079D01*
X180425144Y-127943147D01*
X179969312Y-127765229D01*
X179480091Y-127775293D01*
X179074856Y-127943147D01*
X178985145Y-128129079D01*
X178047916Y-128129079D01*
X177930000Y-128010958D01*
X177930000Y-126781666D01*
X178395144Y-126316521D01*
X178593629Y-126316521D01*
X178690833Y-126461997D01*
X179069564Y-126715058D01*
X179516309Y-126803921D01*
X180287183Y-126803921D01*
X180733928Y-126715058D01*
X181112659Y-126461997D01*
X181365720Y-126083266D01*
X181454583Y-125636521D01*
X181365720Y-125189776D01*
X181192143Y-124930000D01*
X181199995Y-124930000D01*
X181200000Y-124930001D01*
X181402822Y-124889656D01*
X181470000Y-124844769D01*
X181470000Y-131979995D01*
X181469999Y-131980000D01*
X181510344Y-132182822D01*
X181625233Y-132354767D01*
X183145231Y-133874764D01*
X183145233Y-133874767D01*
X183317178Y-133989656D01*
X183520000Y-134030001D01*
X183520005Y-134030000D01*
X185030466Y-134030000D01*
X185420010Y-134419544D01*
X185420010Y-135050010D01*
X185467966Y-135291101D01*
X185557435Y-135425000D01*
X185604533Y-135495487D01*
X186054523Y-135945477D01*
X186258909Y-136082044D01*
X186500000Y-136130000D01*
X187105348Y-136130000D01*
X187144236Y-136224115D01*
X187503991Y-136584499D01*
X187974275Y-136779778D01*
X188483491Y-136780222D01*
X188954115Y-136585764D01*
X189314499Y-136226009D01*
X189482556Y-135821283D01*
X189482556Y-136400000D01*
X189509053Y-136540819D01*
X189592277Y-136670153D01*
X189719263Y-136756919D01*
X189870000Y-136787444D01*
X191670000Y-136787444D01*
X191810819Y-136760947D01*
X191940153Y-136677723D01*
X192026919Y-136550737D01*
X192057444Y-136400000D01*
X192057444Y-134600000D01*
X192030947Y-134459181D01*
X191947723Y-134329847D01*
X191820737Y-134243081D01*
X191670000Y-134212556D01*
X191400000Y-134212556D01*
X191400000Y-134100000D01*
X191395356Y-134076651D01*
X191352045Y-133858910D01*
X191215477Y-133654523D01*
X190865477Y-133304523D01*
X190829108Y-133280222D01*
X190661091Y-133167956D01*
X190420000Y-133120000D01*
X187010954Y-133120000D01*
X186148869Y-132257915D01*
X186149778Y-132255725D01*
X186150222Y-131746509D01*
X185955764Y-131275885D01*
X185596009Y-130915501D01*
X185125725Y-130720222D01*
X184616509Y-130719778D01*
X184145885Y-130914236D01*
X183785501Y-131273991D01*
X183590222Y-131744275D01*
X183589778Y-132253491D01*
X183784236Y-132724115D01*
X184029692Y-132970000D01*
X183739533Y-132970000D01*
X182530000Y-131760466D01*
X182530000Y-125806521D01*
X185998746Y-125806521D01*
X185998746Y-126499508D01*
X186056598Y-126639174D01*
X186163494Y-126746070D01*
X186303160Y-126803921D01*
X187351746Y-126803921D01*
X187446746Y-126708921D01*
X187446746Y-125711521D01*
X187596746Y-125711521D01*
X187596746Y-126708921D01*
X187691746Y-126803921D01*
X188740332Y-126803921D01*
X188879998Y-126746070D01*
X188986894Y-126639174D01*
X189044746Y-126499508D01*
X189044746Y-125806521D01*
X188949746Y-125711521D01*
X187596746Y-125711521D01*
X187446746Y-125711521D01*
X186093746Y-125711521D01*
X185998746Y-125806521D01*
X182530000Y-125806521D01*
X182530000Y-124859532D01*
X182615998Y-124773534D01*
X185998746Y-124773534D01*
X185998746Y-125466521D01*
X186093746Y-125561521D01*
X187446746Y-125561521D01*
X187446746Y-124564121D01*
X187596746Y-124564121D01*
X187596746Y-125561521D01*
X188949746Y-125561521D01*
X189044746Y-125466521D01*
X189044746Y-124773534D01*
X188986894Y-124633868D01*
X188879998Y-124526972D01*
X188740332Y-124469121D01*
X187691746Y-124469121D01*
X187596746Y-124564121D01*
X187446746Y-124564121D01*
X187351746Y-124469121D01*
X186303160Y-124469121D01*
X186163494Y-124526972D01*
X186056598Y-124633868D01*
X185998746Y-124773534D01*
X182615998Y-124773534D01*
X184850411Y-122539121D01*
X185859212Y-122539121D01*
X186043188Y-122723096D01*
X185968909Y-123096521D01*
X186057772Y-123543266D01*
X186310833Y-123921997D01*
X186689564Y-124175058D01*
X187136309Y-124263921D01*
X187907183Y-124263921D01*
X188353928Y-124175058D01*
X188732659Y-123921997D01*
X188985720Y-123543266D01*
X189074583Y-123096521D01*
X188985720Y-122649776D01*
X188732659Y-122271045D01*
X188353928Y-122017984D01*
X187907183Y-121929121D01*
X187136309Y-121929121D01*
X186812658Y-121993499D01*
X186453513Y-121634354D01*
X186281568Y-121519465D01*
X186078746Y-121479120D01*
X186078741Y-121479121D01*
X184870413Y-121479121D01*
X185263013Y-121086521D01*
X186113401Y-121086521D01*
X186310833Y-121381997D01*
X186689564Y-121635058D01*
X187136309Y-121723921D01*
X187907183Y-121723921D01*
X188353928Y-121635058D01*
X188732659Y-121381997D01*
X188985720Y-121003266D01*
X189074583Y-120556521D01*
X188985720Y-120109776D01*
X188732659Y-119731045D01*
X188353928Y-119477984D01*
X187907183Y-119389121D01*
X187136309Y-119389121D01*
X186689564Y-119477984D01*
X186310833Y-119731045D01*
X186113401Y-120026521D01*
X185164279Y-120026521D01*
X185874764Y-119316036D01*
X185874767Y-119316034D01*
X185989656Y-119144089D01*
X185992041Y-119132101D01*
X186030001Y-118941267D01*
X186030000Y-118941262D01*
X186030000Y-118323647D01*
X186057772Y-118463266D01*
X186310833Y-118841997D01*
X186689564Y-119095058D01*
X187136309Y-119183921D01*
X187907183Y-119183921D01*
X188230834Y-119119543D01*
X189720000Y-120608708D01*
X189720000Y-121690000D01*
X189745000Y-121815683D01*
X189745000Y-123561715D01*
X189783441Y-123754970D01*
X189892911Y-123918804D01*
X191996206Y-126022099D01*
X192081078Y-126078808D01*
X191855501Y-126303991D01*
X191660222Y-126774275D01*
X191659778Y-127283491D01*
X191854236Y-127754115D01*
X192213991Y-128114499D01*
X192661247Y-128300216D01*
X192215885Y-128484236D01*
X191855501Y-128843991D01*
X191660222Y-129314275D01*
X191659778Y-129823491D01*
X191854236Y-130294115D01*
X192213991Y-130654499D01*
X192661247Y-130840216D01*
X192215885Y-131024236D01*
X191855501Y-131383991D01*
X191660222Y-131854275D01*
X191659778Y-132363491D01*
X191854236Y-132834115D01*
X192213991Y-133194499D01*
X192684275Y-133389778D01*
X193193491Y-133390222D01*
X193664115Y-133195764D01*
X194024499Y-132836009D01*
X194210216Y-132388753D01*
X194394236Y-132834115D01*
X194753991Y-133194499D01*
X195224275Y-133389778D01*
X195733491Y-133390222D01*
X196204115Y-133195764D01*
X196564499Y-132836009D01*
X196759778Y-132365725D01*
X196760222Y-131856509D01*
X196565764Y-131385885D01*
X196206009Y-131025501D01*
X195758753Y-130839784D01*
X196204115Y-130655764D01*
X196564499Y-130296009D01*
X196759778Y-129825725D01*
X196760222Y-129316509D01*
X196565764Y-128845885D01*
X196206009Y-128485501D01*
X195758753Y-128299784D01*
X196204115Y-128115764D01*
X196564499Y-127756009D01*
X196759778Y-127285725D01*
X196760222Y-126776509D01*
X196565764Y-126305885D01*
X196206009Y-125945501D01*
X195735725Y-125750222D01*
X195705633Y-125750196D01*
X195931566Y-125705255D01*
X196314386Y-125449463D01*
X196570178Y-125066643D01*
X196660000Y-124615077D01*
X196660000Y-124364923D01*
X196570178Y-123913357D01*
X196314386Y-123530537D01*
X195931566Y-123274745D01*
X195707620Y-123230199D01*
X195733491Y-123230222D01*
X196204115Y-123035764D01*
X196564499Y-122676009D01*
X196759778Y-122205725D01*
X196760222Y-121696509D01*
X196565764Y-121225885D01*
X196206009Y-120865501D01*
X195758753Y-120679784D01*
X196204115Y-120495764D01*
X196564499Y-120136009D01*
X196759778Y-119665725D01*
X196760222Y-119156509D01*
X196565764Y-118685885D01*
X196206009Y-118325501D01*
X195758753Y-118139784D01*
X196204115Y-117955764D01*
X196564499Y-117596009D01*
X196759778Y-117125725D01*
X196760222Y-116616509D01*
X196565764Y-116145885D01*
X196206009Y-115785501D01*
X195758753Y-115599784D01*
X196204115Y-115415764D01*
X196564499Y-115056009D01*
X196759778Y-114585725D01*
X196760222Y-114076509D01*
X196565764Y-113605885D01*
X196206009Y-113245501D01*
X195758753Y-113059784D01*
X196204115Y-112875764D01*
X196564499Y-112516009D01*
X196759778Y-112045725D01*
X196760222Y-111536509D01*
X196565764Y-111065885D01*
X196206009Y-110705501D01*
X195758753Y-110519784D01*
X196204115Y-110335764D01*
X196564499Y-109976009D01*
X196759778Y-109505725D01*
X196760222Y-108996509D01*
X196709963Y-108874873D01*
X196808971Y-108941029D01*
G36*
X191855501Y-108523991D02*
X191660222Y-108994275D01*
X191659778Y-109503491D01*
X191854236Y-109974115D01*
X192213991Y-110334499D01*
X192661247Y-110520216D01*
X192215885Y-110704236D01*
X191855501Y-111063991D01*
X191660222Y-111534275D01*
X191659778Y-112043491D01*
X191854236Y-112514115D01*
X192213991Y-112874499D01*
X192661247Y-113060216D01*
X192215885Y-113244236D01*
X191855501Y-113603991D01*
X191660222Y-114074275D01*
X191659778Y-114583491D01*
X191854236Y-115054115D01*
X192213991Y-115414499D01*
X192661247Y-115600216D01*
X192215885Y-115784236D01*
X191855501Y-116143991D01*
X191660222Y-116614275D01*
X191659778Y-117123491D01*
X191854236Y-117594115D01*
X192213991Y-117954499D01*
X192661247Y-118140216D01*
X192215885Y-118324236D01*
X191855501Y-118683991D01*
X191660222Y-119154275D01*
X191659778Y-119663491D01*
X191854236Y-120134115D01*
X192213991Y-120494499D01*
X192684275Y-120689778D01*
X193193491Y-120690222D01*
X193664115Y-120495764D01*
X194024499Y-120136009D01*
X194210216Y-119688753D01*
X194394236Y-120134115D01*
X194753991Y-120494499D01*
X195201247Y-120680216D01*
X194755885Y-120864236D01*
X194395501Y-121223991D01*
X194200222Y-121694275D01*
X194200196Y-121724367D01*
X194155255Y-121498434D01*
X193899463Y-121115614D01*
X193516643Y-120859822D01*
X193065077Y-120770000D01*
X192814923Y-120770000D01*
X192363357Y-120859822D01*
X191980537Y-121115614D01*
X191724745Y-121498434D01*
X191634923Y-121950000D01*
X191724745Y-122401566D01*
X191980537Y-122784386D01*
X192363357Y-123040178D01*
X192814923Y-123130000D01*
X193065077Y-123130000D01*
X193516643Y-123040178D01*
X193718723Y-122905153D01*
X193674990Y-123125010D01*
X193722946Y-123366100D01*
X193799990Y-123481405D01*
X193799990Y-123589148D01*
X193516643Y-123399822D01*
X193065077Y-123310000D01*
X192814923Y-123310000D01*
X192363357Y-123399822D01*
X192063389Y-123600254D01*
X191871189Y-123408054D01*
X191666802Y-123271487D01*
X191574926Y-123253212D01*
X191330010Y-123008295D01*
X191330010Y-119882807D01*
X191330011Y-119882802D01*
X191289666Y-119679980D01*
X191278648Y-119663491D01*
X191174777Y-119508035D01*
X191174774Y-119508033D01*
X190859757Y-119193016D01*
X190974115Y-119145764D01*
X191334499Y-118786009D01*
X191529778Y-118315725D01*
X191530222Y-117806509D01*
X191335764Y-117335885D01*
X190976009Y-116975501D01*
X190780000Y-116894111D01*
X190780000Y-116250000D01*
X190739656Y-116047178D01*
X190624767Y-115875233D01*
X190624764Y-115875231D01*
X189874767Y-115125233D01*
X189702822Y-115010344D01*
X189500000Y-114969999D01*
X189499995Y-114970000D01*
X188945779Y-114970000D01*
X188732659Y-114651045D01*
X188353928Y-114397984D01*
X188151745Y-114357767D01*
X188151745Y-114055275D01*
X188353928Y-114015058D01*
X188732659Y-113761997D01*
X188985720Y-113383266D01*
X189074583Y-112936521D01*
X188985720Y-112489776D01*
X188732659Y-112111045D01*
X188353928Y-111857984D01*
X187907183Y-111769121D01*
X187136309Y-111769121D01*
X186689564Y-111857984D01*
X186310833Y-112111045D01*
X186057772Y-112489776D01*
X185968909Y-112936521D01*
X186057772Y-113383266D01*
X186310833Y-113761997D01*
X186689564Y-114015058D01*
X186891745Y-114055274D01*
X186891745Y-114357768D01*
X186689564Y-114397984D01*
X186310833Y-114651045D01*
X186088864Y-114983243D01*
X186070656Y-114986865D01*
X186006436Y-115029776D01*
X185898712Y-115101754D01*
X185898710Y-115101757D01*
X185125233Y-115875233D01*
X185010344Y-116047178D01*
X184969999Y-116250000D01*
X184970000Y-116250005D01*
X184970000Y-118721734D01*
X181236038Y-122455695D01*
X181112659Y-122271045D01*
X180733928Y-122017984D01*
X180531745Y-121977767D01*
X180531745Y-121675275D01*
X180733928Y-121635058D01*
X181112659Y-121381997D01*
X181365720Y-121003266D01*
X181454583Y-120556521D01*
X181365720Y-120109776D01*
X181112659Y-119731045D01*
X180733928Y-119477984D01*
X180287183Y-119389121D01*
X179516309Y-119389121D01*
X179069564Y-119477984D01*
X178690833Y-119731045D01*
X178437772Y-120109776D01*
X178348909Y-120556521D01*
X178437772Y-121003266D01*
X178690833Y-121381997D01*
X179069564Y-121635058D01*
X179271745Y-121675274D01*
X179271745Y-121977768D01*
X179069564Y-122017984D01*
X178690833Y-122271045D01*
X178437772Y-122649776D01*
X178348909Y-123096521D01*
X178437772Y-123543266D01*
X178656090Y-123870000D01*
X176466741Y-123870000D01*
X175109757Y-122513016D01*
X175224115Y-122465764D01*
X175584499Y-122106009D01*
X175779778Y-121635725D01*
X175780222Y-121126509D01*
X175585764Y-120655885D01*
X175226009Y-120295501D01*
X174755725Y-120100222D01*
X174246509Y-120099778D01*
X173775885Y-120294236D01*
X173415501Y-120653991D01*
X173220222Y-121124275D01*
X173219778Y-121633491D01*
X173414236Y-122104115D01*
X173773991Y-122464499D01*
X173970000Y-122545889D01*
X173970000Y-122652787D01*
X173969999Y-122652792D01*
X174010344Y-122855614D01*
X174125233Y-123027559D01*
X175872439Y-124774764D01*
X175872441Y-124774767D01*
X176044386Y-124889656D01*
X176247208Y-124930000D01*
X178611349Y-124930000D01*
X178593629Y-124956521D01*
X178113484Y-124956521D01*
X178113479Y-124956520D01*
X177896429Y-124999695D01*
X177853254Y-125008283D01*
X177632646Y-125155688D01*
X177632644Y-125155691D01*
X176769167Y-126019167D01*
X176621762Y-126239775D01*
X176621762Y-126239776D01*
X176569999Y-126500000D01*
X176570000Y-126500005D01*
X176570000Y-128011496D01*
X176250228Y-128330711D01*
X176070205Y-128764254D01*
X176069795Y-129233687D01*
X176249061Y-129667543D01*
X176570000Y-129989042D01*
X176570000Y-130896008D01*
X176525885Y-130914236D01*
X176165501Y-131273991D01*
X176146396Y-131320000D01*
X174750000Y-131320000D01*
X174489775Y-131371762D01*
X174269167Y-131519167D01*
X174269165Y-131519170D01*
X173149167Y-132639167D01*
X173001762Y-132859775D01*
X173001762Y-132859776D01*
X172949999Y-133120000D01*
X172950000Y-133120005D01*
X172950000Y-134096556D01*
X172766400Y-134096556D01*
X172625581Y-134123053D01*
X172530000Y-134184558D01*
X172530000Y-131719534D01*
X174050301Y-130199233D01*
X174244275Y-130279778D01*
X174753491Y-130280222D01*
X175224115Y-130085764D01*
X175584499Y-129726009D01*
X175779778Y-129255725D01*
X175780222Y-128746509D01*
X175585764Y-128275885D01*
X175226009Y-127915501D01*
X174755725Y-127720222D01*
X174246509Y-127719778D01*
X173775885Y-127914236D01*
X173415501Y-128273991D01*
X173220222Y-128744275D01*
X173219778Y-129253491D01*
X173300825Y-129449641D01*
X171780000Y-130970466D01*
X171780000Y-121675532D01*
X174909011Y-118546521D01*
X178493401Y-118546521D01*
X178690833Y-118841997D01*
X179069564Y-119095058D01*
X179516309Y-119183921D01*
X180287183Y-119183921D01*
X180733928Y-119095058D01*
X181112659Y-118841997D01*
X181365720Y-118463266D01*
X181454583Y-118016521D01*
X181365720Y-117569776D01*
X181112659Y-117191045D01*
X180733928Y-116937984D01*
X180287183Y-116849121D01*
X179516309Y-116849121D01*
X179069564Y-116937984D01*
X178690833Y-117191045D01*
X178493401Y-117486521D01*
X175068672Y-117486521D01*
X178001272Y-114553921D01*
X178458741Y-114553921D01*
X178458746Y-114553922D01*
X178661568Y-114513577D01*
X178833513Y-114398688D01*
X179192658Y-114039543D01*
X179516309Y-114103921D01*
X180287183Y-114103921D01*
X180733928Y-114015058D01*
X181112659Y-113761997D01*
X181365720Y-113383266D01*
X181454583Y-112936521D01*
X181365720Y-112489776D01*
X181112659Y-112111045D01*
X180733928Y-111857984D01*
X180287183Y-111769121D01*
X179516309Y-111769121D01*
X179069564Y-111857984D01*
X178690833Y-112111045D01*
X178437772Y-112489776D01*
X178348909Y-112936521D01*
X178423188Y-113309946D01*
X178263843Y-113469290D01*
X178289666Y-113430643D01*
X178299090Y-113383266D01*
X178330011Y-113227821D01*
X178330010Y-113227816D01*
X178330010Y-112362191D01*
X179192658Y-111499543D01*
X179516309Y-111563921D01*
X180287183Y-111563921D01*
X180733928Y-111475058D01*
X181112659Y-111221997D01*
X181365720Y-110843266D01*
X181445027Y-110444561D01*
X181470000Y-110469534D01*
X181470000Y-114780467D01*
X181307629Y-114942837D01*
X181112659Y-114651045D01*
X180733928Y-114397984D01*
X180287183Y-114309121D01*
X179516309Y-114309121D01*
X179069564Y-114397984D01*
X178690833Y-114651045D01*
X178437772Y-115029776D01*
X178348909Y-115476521D01*
X178437772Y-115923266D01*
X178690833Y-116301997D01*
X179069564Y-116555058D01*
X179516309Y-116643921D01*
X180287183Y-116643921D01*
X180733928Y-116555058D01*
X181112659Y-116301997D01*
X181294402Y-116030000D01*
X181499995Y-116030000D01*
X181500000Y-116030001D01*
X181702822Y-115989656D01*
X181874767Y-115874767D01*
X182374764Y-115374769D01*
X182374767Y-115374767D01*
X182489656Y-115202822D01*
X182503947Y-115130976D01*
X182530001Y-115000000D01*
X182530000Y-114999995D01*
X182530000Y-110652842D01*
X186027234Y-110652842D01*
X186058907Y-110773975D01*
X186287636Y-111168965D01*
X186650110Y-111446357D01*
X187091146Y-111563921D01*
X187446746Y-111563921D01*
X187446746Y-110471521D01*
X186096372Y-110471521D01*
X186027234Y-110652842D01*
X182530000Y-110652842D01*
X182530000Y-110250005D01*
X182530001Y-110250000D01*
X182508160Y-110140200D01*
X186027234Y-110140200D01*
X186096372Y-110321521D01*
X187446746Y-110321521D01*
X187446746Y-109229121D01*
X187596746Y-109229121D01*
X187596746Y-110321521D01*
X187616746Y-110321521D01*
X187616746Y-110471521D01*
X187596746Y-110471521D01*
X187596746Y-111563921D01*
X187952346Y-111563921D01*
X188393382Y-111446357D01*
X188523159Y-111347042D01*
X189449024Y-111347042D01*
X189544839Y-111538168D01*
X190018768Y-111724428D01*
X190527899Y-111715145D01*
X190955161Y-111538168D01*
X191050976Y-111347042D01*
X190250000Y-110546066D01*
X189449024Y-111347042D01*
X188523159Y-111347042D01*
X188755856Y-111168965D01*
X188984585Y-110773975D01*
X188989808Y-110753999D01*
X189151832Y-111145161D01*
X189342958Y-111240976D01*
X190143934Y-110440000D01*
X190356066Y-110440000D01*
X191157042Y-111240976D01*
X191348168Y-111145161D01*
X191534428Y-110671232D01*
X191525145Y-110162101D01*
X191348168Y-109734839D01*
X191157042Y-109639024D01*
X190356066Y-110440000D01*
X190143934Y-110440000D01*
X189342958Y-109639024D01*
X189151832Y-109734839D01*
X189006774Y-110103930D01*
X188984585Y-110019067D01*
X188755856Y-109624077D01*
X188636789Y-109532958D01*
X189449024Y-109532958D01*
X190250000Y-110333934D01*
X191050976Y-109532958D01*
X190955161Y-109341832D01*
X190481232Y-109155572D01*
X189972101Y-109164855D01*
X189544839Y-109341832D01*
X189449024Y-109532958D01*
X188636789Y-109532958D01*
X188393382Y-109346685D01*
X187952346Y-109229121D01*
X187596746Y-109229121D01*
X187446746Y-109229121D01*
X187091146Y-109229121D01*
X186650110Y-109346685D01*
X186287636Y-109624077D01*
X186058907Y-110019067D01*
X186027234Y-110140200D01*
X182508160Y-110140200D01*
X182489656Y-110047178D01*
X182374767Y-109875233D01*
X181124767Y-108625233D01*
X180952822Y-108510344D01*
X180750000Y-108469999D01*
X180749995Y-108470000D01*
X179000005Y-108470000D01*
X179000000Y-108469999D01*
X178797178Y-108510344D01*
X178625233Y-108625233D01*
X177721950Y-109528516D01*
X177607061Y-109700461D01*
X177566716Y-109903283D01*
X177566717Y-109903288D01*
X177566717Y-110719209D01*
X176875233Y-111410692D01*
X176760344Y-111582637D01*
X176719999Y-111785459D01*
X176720000Y-111785464D01*
X176720000Y-112780467D01*
X168875233Y-120625233D01*
X168760344Y-120797178D01*
X168719999Y-121000000D01*
X168720000Y-121000005D01*
X168720000Y-121445671D01*
X168499463Y-121115614D01*
X168116643Y-120859822D01*
X167665077Y-120770000D01*
X167414923Y-120770000D01*
X166963357Y-120859822D01*
X166580537Y-121115614D01*
X166324745Y-121498434D01*
X166276409Y-121741435D01*
X166275145Y-121672101D01*
X166098168Y-121244839D01*
X165907042Y-121149024D01*
X165106066Y-121950000D01*
X165120209Y-121964143D01*
X165014143Y-122070209D01*
X165000000Y-122056066D01*
X164199024Y-122857042D01*
X164294839Y-123048168D01*
X164726785Y-123217928D01*
X164275885Y-123404236D01*
X163915501Y-123763991D01*
X163720222Y-124234275D01*
X163719778Y-124743491D01*
X163914236Y-125214115D01*
X164273991Y-125574499D01*
X164721247Y-125760216D01*
X164275885Y-125944236D01*
X163915501Y-126303991D01*
X163720222Y-126774275D01*
X163719778Y-127283491D01*
X163914236Y-127754115D01*
X164273991Y-128114499D01*
X164721247Y-128300216D01*
X164275885Y-128484236D01*
X163915501Y-128843991D01*
X163720222Y-129314275D01*
X163719778Y-129823491D01*
X163914236Y-130294115D01*
X164273991Y-130654499D01*
X164721247Y-130840216D01*
X164275885Y-131024236D01*
X163915501Y-131383991D01*
X163720222Y-131854275D01*
X163719778Y-132363491D01*
X163914236Y-132834115D01*
X164273991Y-133194499D01*
X164744275Y-133389778D01*
X165253491Y-133390222D01*
X165724115Y-133195764D01*
X166084499Y-132836009D01*
X166270216Y-132388753D01*
X166454236Y-132834115D01*
X166813991Y-133194499D01*
X167284275Y-133389778D01*
X167793491Y-133390222D01*
X168264115Y-133195764D01*
X168624499Y-132836009D01*
X168819778Y-132365725D01*
X168820222Y-131856509D01*
X168625764Y-131385885D01*
X168266009Y-131025501D01*
X167818753Y-130839784D01*
X168264115Y-130655764D01*
X168624499Y-130296009D01*
X168819778Y-129825725D01*
X168820222Y-129316509D01*
X168625764Y-128845885D01*
X168266009Y-128485501D01*
X167818753Y-128299784D01*
X168264115Y-128115764D01*
X168624499Y-127756009D01*
X168819778Y-127285725D01*
X168820222Y-126776509D01*
X168625764Y-126305885D01*
X168266009Y-125945501D01*
X167795725Y-125750222D01*
X167286509Y-125749778D01*
X166815885Y-125944236D01*
X166455501Y-126303991D01*
X166269784Y-126751247D01*
X166085764Y-126305885D01*
X165726009Y-125945501D01*
X165278753Y-125759784D01*
X165724115Y-125575764D01*
X166084499Y-125216009D01*
X166279778Y-124745725D01*
X166279804Y-124715633D01*
X166324745Y-124941566D01*
X166580537Y-125324386D01*
X166963357Y-125580178D01*
X167414923Y-125670000D01*
X167665077Y-125670000D01*
X168116643Y-125580178D01*
X168499463Y-125324386D01*
X168636029Y-125120000D01*
X168740000Y-125120000D01*
X168981091Y-125072044D01*
X169185477Y-124935477D01*
X169322044Y-124731091D01*
X169340319Y-124639214D01*
X170169990Y-123809543D01*
X170169990Y-137005647D01*
X170169989Y-137005652D01*
X170210334Y-137208474D01*
X170325223Y-137380419D01*
X171664805Y-138720000D01*
X165326821Y-138720000D01*
X164406290Y-138536895D01*
X163691029Y-138058971D01*
X163213106Y-137343710D01*
X163030000Y-136423175D01*
X163030000Y-121718768D01*
X163715572Y-121718768D01*
X163724855Y-122227899D01*
X163901832Y-122655161D01*
X164092958Y-122750976D01*
X164893934Y-121950000D01*
X164092958Y-121149024D01*
X163901832Y-121244839D01*
X163715572Y-121718768D01*
X163030000Y-121718768D01*
X163030000Y-120317042D01*
X164199024Y-120317042D01*
X164294839Y-120508168D01*
X164720574Y-120675487D01*
X164294839Y-120851832D01*
X164199024Y-121042958D01*
X165000000Y-121843934D01*
X165800976Y-121042958D01*
X165705161Y-120851832D01*
X165279426Y-120684513D01*
X165705161Y-120508168D01*
X165800976Y-120317042D01*
X166739024Y-120317042D01*
X166834839Y-120508168D01*
X167308768Y-120694428D01*
X167817899Y-120685145D01*
X168245161Y-120508168D01*
X168340976Y-120317042D01*
X167540000Y-119516066D01*
X166739024Y-120317042D01*
X165800976Y-120317042D01*
X165000000Y-119516066D01*
X164199024Y-120317042D01*
X163030000Y-120317042D01*
X163030000Y-119178768D01*
X163715572Y-119178768D01*
X163724855Y-119687899D01*
X163901832Y-120115161D01*
X164092958Y-120210976D01*
X164893934Y-119410000D01*
X165106066Y-119410000D01*
X165907042Y-120210976D01*
X166098168Y-120115161D01*
X166265487Y-119689426D01*
X166441832Y-120115161D01*
X166632958Y-120210976D01*
X167433934Y-119410000D01*
X167646066Y-119410000D01*
X168447042Y-120210976D01*
X168638168Y-120115161D01*
X168824428Y-119641232D01*
X168815145Y-119132101D01*
X168638168Y-118704839D01*
X168447042Y-118609024D01*
X167646066Y-119410000D01*
X167433934Y-119410000D01*
X166632958Y-118609024D01*
X166441832Y-118704839D01*
X166274513Y-119130574D01*
X166098168Y-118704839D01*
X165907042Y-118609024D01*
X165106066Y-119410000D01*
X164893934Y-119410000D01*
X164092958Y-118609024D01*
X163901832Y-118704839D01*
X163715572Y-119178768D01*
X163030000Y-119178768D01*
X163030000Y-110576825D01*
X163213106Y-109656290D01*
X163691029Y-108941029D01*
X163712556Y-108926644D01*
X163712556Y-110150000D01*
X163739053Y-110290819D01*
X163822277Y-110420153D01*
X163949263Y-110506919D01*
X164100000Y-110537444D01*
X164679552Y-110537444D01*
X164275885Y-110704236D01*
X163915501Y-111063991D01*
X163720222Y-111534275D01*
X163719778Y-112043491D01*
X163914236Y-112514115D01*
X164273991Y-112874499D01*
X164721247Y-113060216D01*
X164275885Y-113244236D01*
X163915501Y-113603991D01*
X163720222Y-114074275D01*
X163719778Y-114583491D01*
X163914236Y-115054115D01*
X164273991Y-115414499D01*
X164721247Y-115600216D01*
X164275885Y-115784236D01*
X163915501Y-116143991D01*
X163720222Y-116614275D01*
X163719778Y-117123491D01*
X163914236Y-117594115D01*
X164273991Y-117954499D01*
X164715210Y-118137709D01*
X164294839Y-118311832D01*
X164199024Y-118502958D01*
X165000000Y-119303934D01*
X165800976Y-118502958D01*
X165705161Y-118311832D01*
X165273215Y-118142072D01*
X165724115Y-117955764D01*
X166084499Y-117596009D01*
X166270216Y-117148753D01*
X166454236Y-117594115D01*
X166813991Y-117954499D01*
X167255210Y-118137709D01*
X166834839Y-118311832D01*
X166739024Y-118502958D01*
X167540000Y-119303934D01*
X168340976Y-118502958D01*
X168245161Y-118311832D01*
X167813215Y-118142072D01*
X168264115Y-117955764D01*
X168624499Y-117596009D01*
X168819778Y-117125725D01*
X168820222Y-116616509D01*
X168625764Y-116145885D01*
X168266009Y-115785501D01*
X167824790Y-115602291D01*
X168245161Y-115428168D01*
X168340976Y-115237042D01*
X167540000Y-114436066D01*
X166739024Y-115237042D01*
X166834839Y-115428168D01*
X167266785Y-115597928D01*
X166815885Y-115784236D01*
X166455501Y-116143991D01*
X166269784Y-116591247D01*
X166085764Y-116145885D01*
X165726009Y-115785501D01*
X165278753Y-115599784D01*
X165724115Y-115415764D01*
X166084499Y-115056009D01*
X166267709Y-114614790D01*
X166441832Y-115035161D01*
X166632958Y-115130976D01*
X167433934Y-114330000D01*
X167646066Y-114330000D01*
X168447042Y-115130976D01*
X168638168Y-115035161D01*
X168824428Y-114561232D01*
X168815145Y-114052101D01*
X168638168Y-113624839D01*
X168447042Y-113529024D01*
X167646066Y-114330000D01*
X167433934Y-114330000D01*
X166632958Y-113529024D01*
X166441832Y-113624839D01*
X166272072Y-114056785D01*
X166085764Y-113605885D01*
X165726009Y-113245501D01*
X165278753Y-113059784D01*
X165724115Y-112875764D01*
X165903149Y-112697042D01*
X166739024Y-112697042D01*
X166834839Y-112888168D01*
X167260574Y-113055487D01*
X166834839Y-113231832D01*
X166739024Y-113422958D01*
X167540000Y-114223934D01*
X168340976Y-113422958D01*
X168245161Y-113231832D01*
X167819426Y-113064513D01*
X168245161Y-112888168D01*
X168340976Y-112697042D01*
X167540000Y-111896066D01*
X166739024Y-112697042D01*
X165903149Y-112697042D01*
X166084499Y-112516009D01*
X166267709Y-112074790D01*
X166441832Y-112495161D01*
X166632958Y-112590976D01*
X167433934Y-111790000D01*
X167646066Y-111790000D01*
X168447042Y-112590976D01*
X168638168Y-112495161D01*
X168824428Y-112021232D01*
X168815145Y-111512101D01*
X168638168Y-111084839D01*
X168447042Y-110989024D01*
X167646066Y-111790000D01*
X167433934Y-111790000D01*
X166632958Y-110989024D01*
X166441832Y-111084839D01*
X166272072Y-111516785D01*
X166085764Y-111065885D01*
X165726009Y-110705501D01*
X165321283Y-110537444D01*
X165900000Y-110537444D01*
X166040819Y-110510947D01*
X166170153Y-110427723D01*
X166256919Y-110300737D01*
X166287444Y-110150000D01*
X166287444Y-109570448D01*
X166454236Y-109974115D01*
X166813991Y-110334499D01*
X167255210Y-110517709D01*
X166834839Y-110691832D01*
X166739024Y-110882958D01*
X167540000Y-111683934D01*
X168340976Y-110882958D01*
X168245161Y-110691832D01*
X167813215Y-110522072D01*
X168264115Y-110335764D01*
X168624499Y-109976009D01*
X168819778Y-109505725D01*
X168820222Y-108996509D01*
X168625764Y-108525885D01*
X168380308Y-108280000D01*
X192099919Y-108280000D01*
X191855501Y-108523991D01*
X191855501Y-108523991D01*
G37*
X191855501Y-108523991D02*
X191660222Y-108994275D01*
X191659778Y-109503491D01*
X191854236Y-109974115D01*
X192213991Y-110334499D01*
X192661247Y-110520216D01*
X192215885Y-110704236D01*
X191855501Y-111063991D01*
X191660222Y-111534275D01*
X191659778Y-112043491D01*
X191854236Y-112514115D01*
X192213991Y-112874499D01*
X192661247Y-113060216D01*
X192215885Y-113244236D01*
X191855501Y-113603991D01*
X191660222Y-114074275D01*
X191659778Y-114583491D01*
X191854236Y-115054115D01*
X192213991Y-115414499D01*
X192661247Y-115600216D01*
X192215885Y-115784236D01*
X191855501Y-116143991D01*
X191660222Y-116614275D01*
X191659778Y-117123491D01*
X191854236Y-117594115D01*
X192213991Y-117954499D01*
X192661247Y-118140216D01*
X192215885Y-118324236D01*
X191855501Y-118683991D01*
X191660222Y-119154275D01*
X191659778Y-119663491D01*
X191854236Y-120134115D01*
X192213991Y-120494499D01*
X192684275Y-120689778D01*
X193193491Y-120690222D01*
X193664115Y-120495764D01*
X194024499Y-120136009D01*
X194210216Y-119688753D01*
X194394236Y-120134115D01*
X194753991Y-120494499D01*
X195201247Y-120680216D01*
X194755885Y-120864236D01*
X194395501Y-121223991D01*
X194200222Y-121694275D01*
X194200196Y-121724367D01*
X194155255Y-121498434D01*
X193899463Y-121115614D01*
X193516643Y-120859822D01*
X193065077Y-120770000D01*
X192814923Y-120770000D01*
X192363357Y-120859822D01*
X191980537Y-121115614D01*
X191724745Y-121498434D01*
X191634923Y-121950000D01*
X191724745Y-122401566D01*
X191980537Y-122784386D01*
X192363357Y-123040178D01*
X192814923Y-123130000D01*
X193065077Y-123130000D01*
X193516643Y-123040178D01*
X193718723Y-122905153D01*
X193674990Y-123125010D01*
X193722946Y-123366100D01*
X193799990Y-123481405D01*
X193799990Y-123589148D01*
X193516643Y-123399822D01*
X193065077Y-123310000D01*
X192814923Y-123310000D01*
X192363357Y-123399822D01*
X192063389Y-123600254D01*
X191871189Y-123408054D01*
X191666802Y-123271487D01*
X191574926Y-123253212D01*
X191330010Y-123008295D01*
X191330010Y-119882807D01*
X191330011Y-119882802D01*
X191289666Y-119679980D01*
X191278648Y-119663491D01*
X191174777Y-119508035D01*
X191174774Y-119508033D01*
X190859757Y-119193016D01*
X190974115Y-119145764D01*
X191334499Y-118786009D01*
X191529778Y-118315725D01*
X191530222Y-117806509D01*
X191335764Y-117335885D01*
X190976009Y-116975501D01*
X190780000Y-116894111D01*
X190780000Y-116250000D01*
X190739656Y-116047178D01*
X190624767Y-115875233D01*
X190624764Y-115875231D01*
X189874767Y-115125233D01*
X189702822Y-115010344D01*
X189500000Y-114969999D01*
X189499995Y-114970000D01*
X188945779Y-114970000D01*
X188732659Y-114651045D01*
X188353928Y-114397984D01*
X188151745Y-114357767D01*
X188151745Y-114055275D01*
X188353928Y-114015058D01*
X188732659Y-113761997D01*
X188985720Y-113383266D01*
X189074583Y-112936521D01*
X188985720Y-112489776D01*
X188732659Y-112111045D01*
X188353928Y-111857984D01*
X187907183Y-111769121D01*
X187136309Y-111769121D01*
X186689564Y-111857984D01*
X186310833Y-112111045D01*
X186057772Y-112489776D01*
X185968909Y-112936521D01*
X186057772Y-113383266D01*
X186310833Y-113761997D01*
X186689564Y-114015058D01*
X186891745Y-114055274D01*
X186891745Y-114357768D01*
X186689564Y-114397984D01*
X186310833Y-114651045D01*
X186088864Y-114983243D01*
X186070656Y-114986865D01*
X186006436Y-115029776D01*
X185898712Y-115101754D01*
X185898710Y-115101757D01*
X185125233Y-115875233D01*
X185010344Y-116047178D01*
X184969999Y-116250000D01*
X184970000Y-116250005D01*
X184970000Y-118721734D01*
X181236038Y-122455695D01*
X181112659Y-122271045D01*
X180733928Y-122017984D01*
X180531745Y-121977767D01*
X180531745Y-121675275D01*
X180733928Y-121635058D01*
X181112659Y-121381997D01*
X181365720Y-121003266D01*
X181454583Y-120556521D01*
X181365720Y-120109776D01*
X181112659Y-119731045D01*
X180733928Y-119477984D01*
X180287183Y-119389121D01*
X179516309Y-119389121D01*
X179069564Y-119477984D01*
X178690833Y-119731045D01*
X178437772Y-120109776D01*
X178348909Y-120556521D01*
X178437772Y-121003266D01*
X178690833Y-121381997D01*
X179069564Y-121635058D01*
X179271745Y-121675274D01*
X179271745Y-121977768D01*
X179069564Y-122017984D01*
X178690833Y-122271045D01*
X178437772Y-122649776D01*
X178348909Y-123096521D01*
X178437772Y-123543266D01*
X178656090Y-123870000D01*
X176466741Y-123870000D01*
X175109757Y-122513016D01*
X175224115Y-122465764D01*
X175584499Y-122106009D01*
X175779778Y-121635725D01*
X175780222Y-121126509D01*
X175585764Y-120655885D01*
X175226009Y-120295501D01*
X174755725Y-120100222D01*
X174246509Y-120099778D01*
X173775885Y-120294236D01*
X173415501Y-120653991D01*
X173220222Y-121124275D01*
X173219778Y-121633491D01*
X173414236Y-122104115D01*
X173773991Y-122464499D01*
X173970000Y-122545889D01*
X173970000Y-122652787D01*
X173969999Y-122652792D01*
X174010344Y-122855614D01*
X174125233Y-123027559D01*
X175872439Y-124774764D01*
X175872441Y-124774767D01*
X176044386Y-124889656D01*
X176247208Y-124930000D01*
X178611349Y-124930000D01*
X178593629Y-124956521D01*
X178113484Y-124956521D01*
X178113479Y-124956520D01*
X177896429Y-124999695D01*
X177853254Y-125008283D01*
X177632646Y-125155688D01*
X177632644Y-125155691D01*
X176769167Y-126019167D01*
X176621762Y-126239775D01*
X176621762Y-126239776D01*
X176569999Y-126500000D01*
X176570000Y-126500005D01*
X176570000Y-128011496D01*
X176250228Y-128330711D01*
X176070205Y-128764254D01*
X176069795Y-129233687D01*
X176249061Y-129667543D01*
X176570000Y-129989042D01*
X176570000Y-130896008D01*
X176525885Y-130914236D01*
X176165501Y-131273991D01*
X176146396Y-131320000D01*
X174750000Y-131320000D01*
X174489775Y-131371762D01*
X174269167Y-131519167D01*
X174269165Y-131519170D01*
X173149167Y-132639167D01*
X173001762Y-132859775D01*
X173001762Y-132859776D01*
X172949999Y-133120000D01*
X172950000Y-133120005D01*
X172950000Y-134096556D01*
X172766400Y-134096556D01*
X172625581Y-134123053D01*
X172530000Y-134184558D01*
X172530000Y-131719534D01*
X174050301Y-130199233D01*
X174244275Y-130279778D01*
X174753491Y-130280222D01*
X175224115Y-130085764D01*
X175584499Y-129726009D01*
X175779778Y-129255725D01*
X175780222Y-128746509D01*
X175585764Y-128275885D01*
X175226009Y-127915501D01*
X174755725Y-127720222D01*
X174246509Y-127719778D01*
X173775885Y-127914236D01*
X173415501Y-128273991D01*
X173220222Y-128744275D01*
X173219778Y-129253491D01*
X173300825Y-129449641D01*
X171780000Y-130970466D01*
X171780000Y-121675532D01*
X174909011Y-118546521D01*
X178493401Y-118546521D01*
X178690833Y-118841997D01*
X179069564Y-119095058D01*
X179516309Y-119183921D01*
X180287183Y-119183921D01*
X180733928Y-119095058D01*
X181112659Y-118841997D01*
X181365720Y-118463266D01*
X181454583Y-118016521D01*
X181365720Y-117569776D01*
X181112659Y-117191045D01*
X180733928Y-116937984D01*
X180287183Y-116849121D01*
X179516309Y-116849121D01*
X179069564Y-116937984D01*
X178690833Y-117191045D01*
X178493401Y-117486521D01*
X175068672Y-117486521D01*
X178001272Y-114553921D01*
X178458741Y-114553921D01*
X178458746Y-114553922D01*
X178661568Y-114513577D01*
X178833513Y-114398688D01*
X179192658Y-114039543D01*
X179516309Y-114103921D01*
X180287183Y-114103921D01*
X180733928Y-114015058D01*
X181112659Y-113761997D01*
X181365720Y-113383266D01*
X181454583Y-112936521D01*
X181365720Y-112489776D01*
X181112659Y-112111045D01*
X180733928Y-111857984D01*
X180287183Y-111769121D01*
X179516309Y-111769121D01*
X179069564Y-111857984D01*
X178690833Y-112111045D01*
X178437772Y-112489776D01*
X178348909Y-112936521D01*
X178423188Y-113309946D01*
X178263843Y-113469290D01*
X178289666Y-113430643D01*
X178299090Y-113383266D01*
X178330011Y-113227821D01*
X178330010Y-113227816D01*
X178330010Y-112362191D01*
X179192658Y-111499543D01*
X179516309Y-111563921D01*
X180287183Y-111563921D01*
X180733928Y-111475058D01*
X181112659Y-111221997D01*
X181365720Y-110843266D01*
X181445027Y-110444561D01*
X181470000Y-110469534D01*
X181470000Y-114780467D01*
X181307629Y-114942837D01*
X181112659Y-114651045D01*
X180733928Y-114397984D01*
X180287183Y-114309121D01*
X179516309Y-114309121D01*
X179069564Y-114397984D01*
X178690833Y-114651045D01*
X178437772Y-115029776D01*
X178348909Y-115476521D01*
X178437772Y-115923266D01*
X178690833Y-116301997D01*
X179069564Y-116555058D01*
X179516309Y-116643921D01*
X180287183Y-116643921D01*
X180733928Y-116555058D01*
X181112659Y-116301997D01*
X181294402Y-116030000D01*
X181499995Y-116030000D01*
X181500000Y-116030001D01*
X181702822Y-115989656D01*
X181874767Y-115874767D01*
X182374764Y-115374769D01*
X182374767Y-115374767D01*
X182489656Y-115202822D01*
X182503947Y-115130976D01*
X182530001Y-115000000D01*
X182530000Y-114999995D01*
X182530000Y-110652842D01*
X186027234Y-110652842D01*
X186058907Y-110773975D01*
X186287636Y-111168965D01*
X186650110Y-111446357D01*
X187091146Y-111563921D01*
X187446746Y-111563921D01*
X187446746Y-110471521D01*
X186096372Y-110471521D01*
X186027234Y-110652842D01*
X182530000Y-110652842D01*
X182530000Y-110250005D01*
X182530001Y-110250000D01*
X182508160Y-110140200D01*
X186027234Y-110140200D01*
X186096372Y-110321521D01*
X187446746Y-110321521D01*
X187446746Y-109229121D01*
X187596746Y-109229121D01*
X187596746Y-110321521D01*
X187616746Y-110321521D01*
X187616746Y-110471521D01*
X187596746Y-110471521D01*
X187596746Y-111563921D01*
X187952346Y-111563921D01*
X188393382Y-111446357D01*
X188523159Y-111347042D01*
X189449024Y-111347042D01*
X189544839Y-111538168D01*
X190018768Y-111724428D01*
X190527899Y-111715145D01*
X190955161Y-111538168D01*
X191050976Y-111347042D01*
X190250000Y-110546066D01*
X189449024Y-111347042D01*
X188523159Y-111347042D01*
X188755856Y-111168965D01*
X188984585Y-110773975D01*
X188989808Y-110753999D01*
X189151832Y-111145161D01*
X189342958Y-111240976D01*
X190143934Y-110440000D01*
X190356066Y-110440000D01*
X191157042Y-111240976D01*
X191348168Y-111145161D01*
X191534428Y-110671232D01*
X191525145Y-110162101D01*
X191348168Y-109734839D01*
X191157042Y-109639024D01*
X190356066Y-110440000D01*
X190143934Y-110440000D01*
X189342958Y-109639024D01*
X189151832Y-109734839D01*
X189006774Y-110103930D01*
X188984585Y-110019067D01*
X188755856Y-109624077D01*
X188636789Y-109532958D01*
X189449024Y-109532958D01*
X190250000Y-110333934D01*
X191050976Y-109532958D01*
X190955161Y-109341832D01*
X190481232Y-109155572D01*
X189972101Y-109164855D01*
X189544839Y-109341832D01*
X189449024Y-109532958D01*
X188636789Y-109532958D01*
X188393382Y-109346685D01*
X187952346Y-109229121D01*
X187596746Y-109229121D01*
X187446746Y-109229121D01*
X187091146Y-109229121D01*
X186650110Y-109346685D01*
X186287636Y-109624077D01*
X186058907Y-110019067D01*
X186027234Y-110140200D01*
X182508160Y-110140200D01*
X182489656Y-110047178D01*
X182374767Y-109875233D01*
X181124767Y-108625233D01*
X180952822Y-108510344D01*
X180750000Y-108469999D01*
X180749995Y-108470000D01*
X179000005Y-108470000D01*
X179000000Y-108469999D01*
X178797178Y-108510344D01*
X178625233Y-108625233D01*
X177721950Y-109528516D01*
X177607061Y-109700461D01*
X177566716Y-109903283D01*
X177566717Y-109903288D01*
X177566717Y-110719209D01*
X176875233Y-111410692D01*
X176760344Y-111582637D01*
X176719999Y-111785459D01*
X176720000Y-111785464D01*
X176720000Y-112780467D01*
X168875233Y-120625233D01*
X168760344Y-120797178D01*
X168719999Y-121000000D01*
X168720000Y-121000005D01*
X168720000Y-121445671D01*
X168499463Y-121115614D01*
X168116643Y-120859822D01*
X167665077Y-120770000D01*
X167414923Y-120770000D01*
X166963357Y-120859822D01*
X166580537Y-121115614D01*
X166324745Y-121498434D01*
X166276409Y-121741435D01*
X166275145Y-121672101D01*
X166098168Y-121244839D01*
X165907042Y-121149024D01*
X165106066Y-121950000D01*
X165120209Y-121964143D01*
X165014143Y-122070209D01*
X165000000Y-122056066D01*
X164199024Y-122857042D01*
X164294839Y-123048168D01*
X164726785Y-123217928D01*
X164275885Y-123404236D01*
X163915501Y-123763991D01*
X163720222Y-124234275D01*
X163719778Y-124743491D01*
X163914236Y-125214115D01*
X164273991Y-125574499D01*
X164721247Y-125760216D01*
X164275885Y-125944236D01*
X163915501Y-126303991D01*
X163720222Y-126774275D01*
X163719778Y-127283491D01*
X163914236Y-127754115D01*
X164273991Y-128114499D01*
X164721247Y-128300216D01*
X164275885Y-128484236D01*
X163915501Y-128843991D01*
X163720222Y-129314275D01*
X163719778Y-129823491D01*
X163914236Y-130294115D01*
X164273991Y-130654499D01*
X164721247Y-130840216D01*
X164275885Y-131024236D01*
X163915501Y-131383991D01*
X163720222Y-131854275D01*
X163719778Y-132363491D01*
X163914236Y-132834115D01*
X164273991Y-133194499D01*
X164744275Y-133389778D01*
X165253491Y-133390222D01*
X165724115Y-133195764D01*
X166084499Y-132836009D01*
X166270216Y-132388753D01*
X166454236Y-132834115D01*
X166813991Y-133194499D01*
X167284275Y-133389778D01*
X167793491Y-133390222D01*
X168264115Y-133195764D01*
X168624499Y-132836009D01*
X168819778Y-132365725D01*
X168820222Y-131856509D01*
X168625764Y-131385885D01*
X168266009Y-131025501D01*
X167818753Y-130839784D01*
X168264115Y-130655764D01*
X168624499Y-130296009D01*
X168819778Y-129825725D01*
X168820222Y-129316509D01*
X168625764Y-128845885D01*
X168266009Y-128485501D01*
X167818753Y-128299784D01*
X168264115Y-128115764D01*
X168624499Y-127756009D01*
X168819778Y-127285725D01*
X168820222Y-126776509D01*
X168625764Y-126305885D01*
X168266009Y-125945501D01*
X167795725Y-125750222D01*
X167286509Y-125749778D01*
X166815885Y-125944236D01*
X166455501Y-126303991D01*
X166269784Y-126751247D01*
X166085764Y-126305885D01*
X165726009Y-125945501D01*
X165278753Y-125759784D01*
X165724115Y-125575764D01*
X166084499Y-125216009D01*
X166279778Y-124745725D01*
X166279804Y-124715633D01*
X166324745Y-124941566D01*
X166580537Y-125324386D01*
X166963357Y-125580178D01*
X167414923Y-125670000D01*
X167665077Y-125670000D01*
X168116643Y-125580178D01*
X168499463Y-125324386D01*
X168636029Y-125120000D01*
X168740000Y-125120000D01*
X168981091Y-125072044D01*
X169185477Y-124935477D01*
X169322044Y-124731091D01*
X169340319Y-124639214D01*
X170169990Y-123809543D01*
X170169990Y-137005647D01*
X170169989Y-137005652D01*
X170210334Y-137208474D01*
X170325223Y-137380419D01*
X171664805Y-138720000D01*
X165326821Y-138720000D01*
X164406290Y-138536895D01*
X163691029Y-138058971D01*
X163213106Y-137343710D01*
X163030000Y-136423175D01*
X163030000Y-121718768D01*
X163715572Y-121718768D01*
X163724855Y-122227899D01*
X163901832Y-122655161D01*
X164092958Y-122750976D01*
X164893934Y-121950000D01*
X164092958Y-121149024D01*
X163901832Y-121244839D01*
X163715572Y-121718768D01*
X163030000Y-121718768D01*
X163030000Y-120317042D01*
X164199024Y-120317042D01*
X164294839Y-120508168D01*
X164720574Y-120675487D01*
X164294839Y-120851832D01*
X164199024Y-121042958D01*
X165000000Y-121843934D01*
X165800976Y-121042958D01*
X165705161Y-120851832D01*
X165279426Y-120684513D01*
X165705161Y-120508168D01*
X165800976Y-120317042D01*
X166739024Y-120317042D01*
X166834839Y-120508168D01*
X167308768Y-120694428D01*
X167817899Y-120685145D01*
X168245161Y-120508168D01*
X168340976Y-120317042D01*
X167540000Y-119516066D01*
X166739024Y-120317042D01*
X165800976Y-120317042D01*
X165000000Y-119516066D01*
X164199024Y-120317042D01*
X163030000Y-120317042D01*
X163030000Y-119178768D01*
X163715572Y-119178768D01*
X163724855Y-119687899D01*
X163901832Y-120115161D01*
X164092958Y-120210976D01*
X164893934Y-119410000D01*
X165106066Y-119410000D01*
X165907042Y-120210976D01*
X166098168Y-120115161D01*
X166265487Y-119689426D01*
X166441832Y-120115161D01*
X166632958Y-120210976D01*
X167433934Y-119410000D01*
X167646066Y-119410000D01*
X168447042Y-120210976D01*
X168638168Y-120115161D01*
X168824428Y-119641232D01*
X168815145Y-119132101D01*
X168638168Y-118704839D01*
X168447042Y-118609024D01*
X167646066Y-119410000D01*
X167433934Y-119410000D01*
X166632958Y-118609024D01*
X166441832Y-118704839D01*
X166274513Y-119130574D01*
X166098168Y-118704839D01*
X165907042Y-118609024D01*
X165106066Y-119410000D01*
X164893934Y-119410000D01*
X164092958Y-118609024D01*
X163901832Y-118704839D01*
X163715572Y-119178768D01*
X163030000Y-119178768D01*
X163030000Y-110576825D01*
X163213106Y-109656290D01*
X163691029Y-108941029D01*
X163712556Y-108926644D01*
X163712556Y-110150000D01*
X163739053Y-110290819D01*
X163822277Y-110420153D01*
X163949263Y-110506919D01*
X164100000Y-110537444D01*
X164679552Y-110537444D01*
X164275885Y-110704236D01*
X163915501Y-111063991D01*
X163720222Y-111534275D01*
X163719778Y-112043491D01*
X163914236Y-112514115D01*
X164273991Y-112874499D01*
X164721247Y-113060216D01*
X164275885Y-113244236D01*
X163915501Y-113603991D01*
X163720222Y-114074275D01*
X163719778Y-114583491D01*
X163914236Y-115054115D01*
X164273991Y-115414499D01*
X164721247Y-115600216D01*
X164275885Y-115784236D01*
X163915501Y-116143991D01*
X163720222Y-116614275D01*
X163719778Y-117123491D01*
X163914236Y-117594115D01*
X164273991Y-117954499D01*
X164715210Y-118137709D01*
X164294839Y-118311832D01*
X164199024Y-118502958D01*
X165000000Y-119303934D01*
X165800976Y-118502958D01*
X165705161Y-118311832D01*
X165273215Y-118142072D01*
X165724115Y-117955764D01*
X166084499Y-117596009D01*
X166270216Y-117148753D01*
X166454236Y-117594115D01*
X166813991Y-117954499D01*
X167255210Y-118137709D01*
X166834839Y-118311832D01*
X166739024Y-118502958D01*
X167540000Y-119303934D01*
X168340976Y-118502958D01*
X168245161Y-118311832D01*
X167813215Y-118142072D01*
X168264115Y-117955764D01*
X168624499Y-117596009D01*
X168819778Y-117125725D01*
X168820222Y-116616509D01*
X168625764Y-116145885D01*
X168266009Y-115785501D01*
X167824790Y-115602291D01*
X168245161Y-115428168D01*
X168340976Y-115237042D01*
X167540000Y-114436066D01*
X166739024Y-115237042D01*
X166834839Y-115428168D01*
X167266785Y-115597928D01*
X166815885Y-115784236D01*
X166455501Y-116143991D01*
X166269784Y-116591247D01*
X166085764Y-116145885D01*
X165726009Y-115785501D01*
X165278753Y-115599784D01*
X165724115Y-115415764D01*
X166084499Y-115056009D01*
X166267709Y-114614790D01*
X166441832Y-115035161D01*
X166632958Y-115130976D01*
X167433934Y-114330000D01*
X167646066Y-114330000D01*
X168447042Y-115130976D01*
X168638168Y-115035161D01*
X168824428Y-114561232D01*
X168815145Y-114052101D01*
X168638168Y-113624839D01*
X168447042Y-113529024D01*
X167646066Y-114330000D01*
X167433934Y-114330000D01*
X166632958Y-113529024D01*
X166441832Y-113624839D01*
X166272072Y-114056785D01*
X166085764Y-113605885D01*
X165726009Y-113245501D01*
X165278753Y-113059784D01*
X165724115Y-112875764D01*
X165903149Y-112697042D01*
X166739024Y-112697042D01*
X166834839Y-112888168D01*
X167260574Y-113055487D01*
X166834839Y-113231832D01*
X166739024Y-113422958D01*
X167540000Y-114223934D01*
X168340976Y-113422958D01*
X168245161Y-113231832D01*
X167819426Y-113064513D01*
X168245161Y-112888168D01*
X168340976Y-112697042D01*
X167540000Y-111896066D01*
X166739024Y-112697042D01*
X165903149Y-112697042D01*
X166084499Y-112516009D01*
X166267709Y-112074790D01*
X166441832Y-112495161D01*
X166632958Y-112590976D01*
X167433934Y-111790000D01*
X167646066Y-111790000D01*
X168447042Y-112590976D01*
X168638168Y-112495161D01*
X168824428Y-112021232D01*
X168815145Y-111512101D01*
X168638168Y-111084839D01*
X168447042Y-110989024D01*
X167646066Y-111790000D01*
X167433934Y-111790000D01*
X166632958Y-110989024D01*
X166441832Y-111084839D01*
X166272072Y-111516785D01*
X166085764Y-111065885D01*
X165726009Y-110705501D01*
X165321283Y-110537444D01*
X165900000Y-110537444D01*
X166040819Y-110510947D01*
X166170153Y-110427723D01*
X166256919Y-110300737D01*
X166287444Y-110150000D01*
X166287444Y-109570448D01*
X166454236Y-109974115D01*
X166813991Y-110334499D01*
X167255210Y-110517709D01*
X166834839Y-110691832D01*
X166739024Y-110882958D01*
X167540000Y-111683934D01*
X168340976Y-110882958D01*
X168245161Y-110691832D01*
X167813215Y-110522072D01*
X168264115Y-110335764D01*
X168624499Y-109976009D01*
X168819778Y-109505725D01*
X168820222Y-108996509D01*
X168625764Y-108525885D01*
X168380308Y-108280000D01*
X192099919Y-108280000D01*
X191855501Y-108523991D01*
M02*
